<svg xmlns="http://www.w3.org/2000/svg" width="188" height="114" viewBox="0 0 188 114">
    <g fill="none" fill-rule="evenodd" stroke-width="2">
        <path stroke="#303F9F" stroke-dasharray="5,7" stroke-linecap="round" d="M32.457 39.263c23.394 0 46.079 29.241 46.079 29.241S55.851 97.747 32.457 97.747c-16.15 0-29.242-13.093-29.242-29.243 0-16.149 13.092-29.241 29.242-29.241z"/>
        <path stroke="#303F9F" stroke-dasharray="5,7" stroke-linecap="round" d="M124.438 39.263c-23.394 0-46.079 29.241-46.079 29.241s22.685 29.243 46.079 29.243c16.15 0 29.242-13.093 29.242-29.243 0-16.149-13.092-29.241-29.242-29.241z"/>
        <path fill="#FFF" stroke="#56E6FF" d="M145.25 76.998a7.751 7.751 0 0 1 0-15.502c1.212 0 2.354.287 3.377.783.843-6.364 6.277-11.28 12.873-11.28 4.703 0 8.81 2.506 11.093 6.246a10.223 10.223 0 0 1 3.821-.744c5.661 0 10.25 4.588 10.25 10.248 0 5.66-4.589 10.249-10.25 10.249H145.25zM7.212 112.998a5.377 5.377 0 1 1 0-10.754c1.002 0 1.938.279 2.742.757a7.58 7.58 0 0 1 7.182-5.166c1.757 0 3.37.604 4.655 1.606 1.235-4.575 5.403-7.947 10.369-7.947 4.792 0 8.848 3.137 10.237 7.468a7.531 7.531 0 0 1 3.961-1.127 7.582 7.582 0 0 1 0 15.163H7.212zM82.47 24.523h-4.643c-.307 1.522-.9 2.931-1.681 4.214l3.243 3.243a2.456 2.456 0 0 1 0 3.472l-.579.578a2.455 2.455 0 0 1-3.471 0l-3.16-3.16c-1.3.867-2.742 1.536-4.312 1.898v4.353a2.454 2.454 0 0 1-2.454 2.454h-.818a2.454 2.454 0 0 1-2.454-2.454V34.83a13.132 13.132 0 0 1-4.417-1.834l-3.031 3.031a2.455 2.455 0 0 1-3.471 0l-.578-.578a2.456 2.456 0 0 1 0-3.472l3.059-3.058c-.832-1.323-1.41-2.813-1.733-4.396h-4.405a2.454 2.454 0 0 1-2.454-2.454v-.818a2.454 2.454 0 0 1 2.454-2.454h4.491c.368-1.521 1.024-2.92 1.866-4.185l-3.263-3.264a2.455 2.455 0 0 1 0-3.471l.579-.578a2.453 2.453 0 0 1 3.471 0l3.344 3.344c1.248-.76 2.614-1.343 4.09-1.654V4.217a2.454 2.454 0 0 1 2.454-2.454h.818a2.454 2.454 0 0 1 2.454 2.454V9.05a13.16 13.16 0 0 1 4.029 1.676l3.428-3.429a2.455 2.455 0 0 1 3.471 0l.579.579a2.455 2.455 0 0 1 0 3.471l-3.401 3.4c.793 1.223 1.361 2.595 1.717 4.05h4.779a2.454 2.454 0 0 1 2.454 2.454v.818a2.455 2.455 0 0 1-2.455 2.454z"/>
    </g>
</svg>
