<svg xmlns="http://www.w3.org/2000/svg" width="182" height="120" viewBox="0 0 182 120">
    <g fill="none" fill-rule="evenodd">
        <g stroke="#56E6FF" stroke-linecap="round" stroke-width="2">
            <path stroke-dasharray="0,3.9756" d="M7.848 50.895l38.453 53.146"/>
            <path stroke-dasharray="0,4.0673" d="M47.346 101.586l-2.223-75.212"/>
            <path stroke-dasharray="0,4.0044" d="M48.033 27.026l43.524 39.347 45.992 43.726"/>
            <path stroke-dasharray="0,3.9505" d="M138.059 107.642L114.041 9.808"/>
            <path stroke-dasharray="0,4.0417" d="M116.743 10.394l52.351 41.311"/>
            <path stroke-dasharray="0,3.9898" d="M166.75 53.646L91.368 66.85 8.221 48.921"/>
            <path stroke-dasharray="0,4.0037" d="M9.631 46.325L44.129 23.98l67.309-15.183"/>
            <path stroke-dasharray="0,4.0346" d="M111.97 12.132L91.548 66.383 48.972 104.31"/>
            <path stroke-dasharray="0,3.9878" d="M51.446 105.904l85.564 5.448"/>
            <path stroke-dasharray="0,3.9183" d="M140.891 108.047l29.31-53.193"/>
        </g>
        <path fill="#FFF" stroke="#303F9F" stroke-width="2" d="M98.924 47.256c10.307 3.975 15.439 15.552 11.465 25.857S94.838 88.551 84.532 84.577 69.093 69.026 73.068 58.721c3.974-10.307 15.551-15.439 25.856-11.465zM174.098 44.094c5.152 1.987 7.719 7.775 5.732 12.929-1.988 5.152-7.775 7.719-12.929 5.731-5.154-1.988-7.72-7.775-5.732-12.928 1.987-5.153 7.776-7.72 12.929-5.732zM47.348 17.72a7.249 7.249 0 0 1 4.155 9.373 7.25 7.25 0 1 1-4.155-9.373zM116.557 1.538a8.001 8.001 0 1 1-5.761 14.93 8.001 8.001 0 0 1 5.761-14.93zM141.455 105.459a6.625 6.625 0 1 1-4.767 12.36 6.625 6.625 0 0 1 4.767-12.36zM48.645 101.552a4.875 4.875 0 1 1-3.51 9.097 4.875 4.875 0 0 1 3.51-9.097zM7.63 43.934a4.875 4.875 0 1 1-3.51 9.097 4.875 4.875 0 0 1 3.51-9.097z"/>
        <path fill="#303F9F" fill-rule="nonzero" d="M90 71h3v-4h4v-3h-4v-4h-3v4h-4v3h4z"/>
    </g>
</svg>
