<svg xmlns="http://www.w3.org/2000/svg" width="1445" height="776" viewBox="0 0 1445 776">
    <defs>
        <linearGradient id="a" x1="52.084%" x2="52.084%" y1="63.972%" y2="100%">
            <stop offset="0%" stop-color="#3891C7" stop-opacity=".64"/>
            <stop offset="100%" stop-color="#FFF" stop-opacity="0"/>
        </linearGradient>
    </defs>
    <g fill="none" fill-rule="evenodd" opacity=".205">
        <path fill="url(#a)" d="M.462 775.576l11.9-84.754 32.397-3.64 22.645-31.79 23.675-1.747 17.253-46.742 15.174-121.52 8.397-43.48 27.31 90.692 21.128 13.8 15.46-26.328 17.323-112.934 54.813 232.195 22.02-101.355 25.246 50.874 13.608-77.565 2.655-37.213 20.493-38.005 10.584-51.644 11.697 72.14-1.936 47.37 10.79 7.005 8.373-21.086 21.336-333.827 20.857 437.752 18.115-62.4V495.74l15.484-36.825 7.25-28.227 13.342-42.451 31.717 44.266 15.79 24.059 12.746-15.574 22.231 70 32.338-137.58 9.461 75.026 20.276 51.903 19.656-16.624 9.18-35.29 14.697-15.94 1.852-30.3 16.77-74.5 24.62 21.159 13.248-54.132 28.019 422.287 24.068-86.862 31.718-6.075 38.006 61.65 14.765-240.482 18.524 13.537 8.717-28.263 4.91 9.028 9.215-2.756 5.265 12.161 14.627 7.932.261 26.908 17.484 17.058 21.848-3.775 1.147-45.041 5.496-176.97 16.406 3.05 19.198 40.605 48.034-83.035 20.71-85.125 9.21 26.955 3.481 26.732 16.878 30.631 28.679-56.69L1191.482.897l15.208 66.065 42.981 107.896 16.189-47.55 17.602-22.073 30.018 33.067 18.937-31.898 32.815 43.066 15.352-85.02 29.83 2.305 5.35 19.68 28.737-30.843v719.983H123.964z"/>
        <path d="M3.023 778.644l9.34-87.822 32.396-3.64 22.645-31.79 23.675-1.747 17.253-46.742 15.174-121.52 9.928-43.48 25.778 90.692 21.129 13.8 15.46-26.328 18.366-117.886 53.77 237.147 22.02-101.355 25.246 50.874 13.608-77.565 2.655-37.213 20.493-38.005 10.584-51.644 11.697 72.14-1.936 47.37 10.79 7.005 8.373-21.086 21.336-333.827 20.857 437.752 18.115-62.4V495.74l15.484-36.825 7.25-28.227 13.342-42.451 31.717 44.266 15.79 24.059 12.746-15.574 22.231 70 32.338-137.58 9.461 75.026 20.276 51.903 19.656-16.624 9.18-35.29 14.697-15.94 1.852-30.3 16.77-74.5 24.62 21.159 13.248-54.132 28.019 422.287 24.068-86.862 31.718-6.075 38.006 61.65 14.765-240.482 18.524 13.537 8.717-28.263 4.91 9.028 9.215-2.756 5.265 12.161 14.627 7.932.261 26.908 17.484 17.058 21.848-3.775 1.147-45.041 5.496-176.97 16.406 3.05 19.198 40.605 48.034-83.035 20.71-85.125 9.21 26.955 3.481 26.732 16.878 30.631 28.679-56.69L1191.482.897l15.208 66.065 42.981 107.896 16.189-47.55 17.602-22.073 30.018 33.067 18.937-31.898 32.815 43.066 15.352-85.02 29.83 2.305 5.35 19.68 28.737-30.843"/>
    </g>
</svg>
