<?xml version="1.0" encoding="utf-8"?>
<!-- Generator: Adobe Illustrator 21.0.2, SVG Export Plug-In . SVG Version: 6.00 Build 0)  -->
<svg version="1.1" id="Layer_1" xmlns="http://www.w3.org/2000/svg" xmlns:xlink="http://www.w3.org/1999/xlink" x="0px" y="0px"
	 viewBox="0 0 1248 427" style="enable-background:new 0 0 1248 427;" xml:space="preserve">
<style type="text/css">
	.st0{fill:none;stroke:#BABFCC;stroke-width:2;stroke-linecap:round;stroke-dasharray:5;}
	.st1{fill:none;stroke:#BABFCC;stroke-width:2;stroke-linecap:round;stroke-dasharray:5,5;}
	.st2{fill:#56E6FF;}
	.st3{fill:#1CA2C8;}
	.st4{fill:#3F82C6;}
	.st5{fill:#4EC5EC;}
	.st6{fill:#FFFFFF;}
	.st7{fill:#303F9F;}
	.st8{filter:url(#filter-2);}
	.st9{filter:url(#filter-4);}
	.st10{filter:url(#filter-6);}
	.st11{filter:url(#filter-8);}
	.st12{filter:url(#filter-10);}
	.st13{filter:url(#filter-12);}
	.st14{filter:url(#filter-14);}
	.st15{fill:#BABFCC;}
</style>
<filter  filterUnits="objectBoundingBox" height="141.2%" id="filter-8" width="141.2%" x="-20.6%" y="-14.7%">
	<feOffset  dx="0" dy="8" in="SourceAlpha" result="shadowOffsetOuter1"></feOffset>
	<feGaussianBlur  in="shadowOffsetOuter1" result="shadowBlurOuter1" stdDeviation="8"></feGaussianBlur>
	
		<feColorMatrix  in="shadowBlurOuter1" type="matrix" values="0 0 0 0 0.105882353   0 0 0 0 0.17254902   0 0 0 0 0.333333333  0 0 0 0.12 0">
		</feColorMatrix>
</filter>
<filter  filterUnits="objectBoundingBox" height="141.2%" id="filter-6" width="141.2%" x="-20.6%" y="-14.7%">
	<feOffset  dx="0" dy="8" in="SourceAlpha" result="shadowOffsetOuter1"></feOffset>
	<feGaussianBlur  in="shadowOffsetOuter1" result="shadowBlurOuter1" stdDeviation="8"></feGaussianBlur>
	<feColorMatrix  in="shadowBlurOuter1" type="matrix" values="0 0 0 0 0   0 0 0 0 0   0 0 0 0 0  0 0 0 0.08 0"></feColorMatrix>
</filter>
<filter  filterUnits="objectBoundingBox" height="135.0%" id="filter-4" width="135.0%" x="-17.5%" y="-12.5%">
	<feOffset  dx="0" dy="8" in="SourceAlpha" result="shadowOffsetOuter1"></feOffset>
	<feGaussianBlur  in="shadowOffsetOuter1" result="shadowBlurOuter1" stdDeviation="8"></feGaussianBlur>
	
		<feColorMatrix  in="shadowBlurOuter1" type="matrix" values="0 0 0 0 0.105882353   0 0 0 0 0.17254902   0 0 0 0 0.333333333  0 0 0 0.08 0">
		</feColorMatrix>
</filter>
<filter  filterUnits="objectBoundingBox" height="141.2%" id="filter-2" width="141.2%" x="-20.6%" y="-14.7%">
	<feOffset  dx="0" dy="8" in="SourceAlpha" result="shadowOffsetOuter1"></feOffset>
	<feGaussianBlur  in="shadowOffsetOuter1" result="shadowBlurOuter1" stdDeviation="8"></feGaussianBlur>
	
		<feColorMatrix  in="shadowBlurOuter1" type="matrix" values="0 0 0 0 0.105882353   0 0 0 0 0.17254902   0 0 0 0 0.333333333  0 0 0 0.12 0">
		</feColorMatrix>
</filter>
<filter  filterUnits="objectBoundingBox" height="141.2%" id="filter-14" width="141.2%" x="-20.6%" y="-14.7%">
	<feOffset  dx="0" dy="8" in="SourceAlpha" result="shadowOffsetOuter1"></feOffset>
	<feGaussianBlur  in="shadowOffsetOuter1" result="shadowBlurOuter1" stdDeviation="8"></feGaussianBlur>
	
		<feColorMatrix  in="shadowBlurOuter1" type="matrix" values="0 0 0 0 0.105882353   0 0 0 0 0.17254902   0 0 0 0 0.333333333  0 0 0 0.12 0">
		</feColorMatrix>
</filter>
<filter  filterUnits="objectBoundingBox" height="141.2%" id="filter-12" width="141.2%" x="-20.6%" y="-14.7%">
	<feOffset  dx="0" dy="8" in="SourceAlpha" result="shadowOffsetOuter1"></feOffset>
	<feGaussianBlur  in="shadowOffsetOuter1" result="shadowBlurOuter1" stdDeviation="8"></feGaussianBlur>
	
		<feColorMatrix  in="shadowBlurOuter1" type="matrix" values="0 0 0 0 0.105882353   0 0 0 0 0.17254902   0 0 0 0 0.333333333  0 0 0 0.12 0">
		</feColorMatrix>
</filter>
<filter  filterUnits="objectBoundingBox" height="141.2%" id="filter-10" width="141.2%" x="-20.6%" y="-14.7%">
	<feOffset  dx="0" dy="8" in="SourceAlpha" result="shadowOffsetOuter1"></feOffset>
	<feGaussianBlur  in="shadowOffsetOuter1" result="shadowBlurOuter1" stdDeviation="8"></feGaussianBlur>
	
		<feColorMatrix  in="shadowBlurOuter1" type="matrix" values="0 0 0 0 0.105882353   0 0 0 0 0.17254902   0 0 0 0 0.333333333  0 0 0 0.12 0">
		</feColorMatrix>
</filter>
<title>infograpic-2</title>
<desc>Created with Sketch.</desc>
<g id="Eurocoin">
	<g id="Icns_x2C_-imgs" transform="translate(-325.000000, -7422.000000)">
		<g id="infograpic-2" transform="translate(341.000000, 7422.000000)">
			<path id="Line-4" class="st0" d="M95,189.2c58.6-41.5,112-62.2,160.4-62.2s103.6,14.9,165.9,44.6"/>
			<path id="Line-4-Copy" class="st1" d="M1120.3,188.2c-58.6-40.8-112-61.2-160.4-61.2c-48.3,0-103.6,14.6-165.9,43.9"/>
			<path id="Line-4-Copy-2" class="st1" d="M216,337c62.5,32.2,118,48.3,166.3,48.3S486,359.2,548.6,307"/>
			<g id="Group-96" transform="translate(490.000000, 0.000000)">
				<g id="Group-91-Copy-2" transform="translate(174.000000, 0.000000)">
					<g id="Group-74" transform="translate(0.000000, 38.000000)">
						<path id="Combined-Shape" class="st2" d="M12,24C5.4,24,0,18.6,0,12S5.4,0,12,0s12,5.4,12,12S18.6,24,12,24z M13.6,10.6h-2.3
							c0.4-0.8,1.1-1.2,2.2-1.2c0.6,0,1.2,0.2,1.7,0.5V8.2c-0.6-0.3-1.2-0.4-1.9-0.4c-1,0-1.8,0.3-2.5,0.8s-1.2,1.2-1.4,2h-1v1h0.8
							c0,0.2,0,0.3,0,0.4c0,0.2,0,0.3,0,0.4H8.4v1h1c0.2,0.9,0.7,1.6,1.4,2.2c0.7,0.6,1.5,0.8,2.5,0.8c0.9,0,1.5-0.2,2.1-0.5v-1.7
							c-0.5,0.4-1.2,0.6-1.9,0.6c-1.1,0-1.9-0.5-2.3-1.5h2.4v-1H11c0-0.1,0-0.3,0-0.4c0-0.1,0-0.3,0-0.4h2.6V10.6z"/>
						<path id="Combined-Shape-Copy" class="st3" d="M31,24c-6.6,0-12-5.4-12-12S24.4,0,31,0s12,5.4,12,12S37.6,24,31,24z
							 M32.6,10.6h-2.3c0.4-0.8,1.1-1.2,2.2-1.2c0.6,0,1.2,0.2,1.7,0.5V8.2c-0.6-0.3-1.2-0.4-1.9-0.4c-1,0-1.8,0.3-2.5,0.8
							s-1.2,1.2-1.4,2h-1v1h0.8c0,0.2,0,0.3,0,0.4c0,0.2,0,0.3,0,0.4h-0.8v1h1c0.2,0.9,0.7,1.6,1.4,2.2c0.7,0.6,1.5,0.8,2.5,0.8
							c0.9,0,1.5-0.2,2.1-0.5v-1.7c-0.5,0.4-1.2,0.6-1.9,0.6c-1.1,0-1.9-0.5-2.3-1.5h2.4v-1H30c0-0.1,0-0.3,0-0.4c0-0.1,0-0.3,0-0.4
							h2.6V10.6z"/>
						<path id="Combined-Shape-Copy-2" class="st4" d="M50,24c-6.6,0-12-5.4-12-12S43.4,0,50,0s12,5.4,12,12S56.6,24,50,24z
							 M51.6,10.6h-2.3c0.4-0.8,1.1-1.2,2.2-1.2c0.6,0,1.2,0.2,1.7,0.5V8.2c-0.6-0.3-1.2-0.4-1.9-0.4c-1,0-1.8,0.3-2.5,0.8
							c-0.7,0.5-1.2,1.2-1.4,2h-1v1h0.8c0,0.2,0,0.3,0,0.4c0,0.2,0,0.3,0,0.4h-0.8v1h1c0.2,0.9,0.7,1.6,1.4,2.2
							c0.7,0.6,1.5,0.8,2.5,0.8c0.9,0,1.5-0.2,2.1-0.5v-1.7c-0.5,0.4-1.2,0.6-1.9,0.6c-1.1,0-1.9-0.5-2.3-1.5h2.4v-1H49
							c0-0.1,0-0.3,0-0.4c0-0.1,0-0.3,0-0.4h2.6V10.6z"/>
					</g>
					<g id="Group-93" transform="translate(10.000000, 19.000000)">
						<path id="Combined-Shape-Copy-4" class="st3" d="M12,24C5.4,24,0,18.6,0,12S5.4,0,12,0s12,5.4,12,12S18.6,24,12,24z
							 M13.6,10.6h-2.3c0.4-0.8,1.1-1.2,2.2-1.2c0.6,0,1.2,0.2,1.7,0.5V8.2c-0.6-0.3-1.2-0.4-1.9-0.4c-1,0-1.8,0.3-2.5,0.8
							s-1.2,1.2-1.4,2h-1v1h0.8c0,0.2,0,0.3,0,0.4c0,0.2,0,0.3,0,0.4H8.4v1h1c0.2,0.9,0.7,1.6,1.4,2.2c0.7,0.6,1.5,0.8,2.5,0.8
							c0.9,0,1.5-0.2,2.1-0.5v-1.7c-0.5,0.4-1.2,0.6-1.9,0.6c-1.1,0-1.9-0.5-2.3-1.5h2.4v-1H11c0-0.1,0-0.3,0-0.4c0-0.1,0-0.3,0-0.4
							h2.6V10.6z"/>
						<path id="Combined-Shape-Copy-3" class="st4" d="M31,24c-6.6,0-12-5.4-12-12S24.4,0,31,0s12,5.4,12,12S37.6,24,31,24z
							 M32.6,10.6h-2.3c0.4-0.8,1.1-1.2,2.2-1.2c0.6,0,1.2,0.2,1.7,0.5V8.2c-0.6-0.3-1.2-0.4-1.9-0.4c-1,0-1.8,0.3-2.5,0.8
							s-1.2,1.2-1.4,2h-1v1h0.8c0,0.2,0,0.3,0,0.4c0,0.2,0,0.3,0,0.4h-0.8v1h1c0.2,0.9,0.7,1.6,1.4,2.2c0.7,0.6,1.5,0.8,2.5,0.8
							c0.9,0,1.5-0.2,2.1-0.5v-1.7c-0.5,0.4-1.2,0.6-1.9,0.6c-1.1,0-1.9-0.5-2.3-1.5h2.4v-1H30c0-0.1,0-0.3,0-0.4c0-0.1,0-0.3,0-0.4
							h2.6V10.6z"/>
					</g>
					<path id="Combined-Shape-Copy-5" class="st4" d="M31,24c-6.6,0-12-5.4-12-12S24.4,0,31,0s12,5.4,12,12S37.6,24,31,24z
						 M32.6,10.6h-2.3c0.4-0.8,1.1-1.2,2.2-1.2c0.6,0,1.2,0.2,1.7,0.5V8.2c-0.6-0.3-1.2-0.4-1.9-0.4c-1,0-1.8,0.3-2.5,0.8
						s-1.2,1.2-1.4,2h-1v1h0.8c0,0.2,0,0.3,0,0.4c0,0.2,0,0.3,0,0.4h-0.8v1h1c0.2,0.9,0.7,1.6,1.4,2.2c0.7,0.6,1.5,0.8,2.5,0.8
						c0.9,0,1.5-0.2,2.1-0.5v-1.7c-0.5,0.4-1.2,0.6-1.9,0.6c-1.1,0-1.9-0.5-2.3-1.5h2.4v-1H30c0-0.1,0-0.3,0-0.4c0-0.1,0-0.3,0-0.4
						h2.6V10.6z"/>
				</g>
				<g id="Group-40">
					<g id="Logo-coin-Copy-6" transform="translate(0.000000, 38.000000)">
						<polygon id="Polygon_1" class="st5" points="12,23.9 3.5,20.4 0,12 3.5,3.6 12,0.1 20.5,3.6 24,12 20.5,20.4 						"/>
						<path id="OX" class="st6" d="M4.9,10.3c-0.3,0.6-0.5,1.2-0.5,1.8c0,0.5,0.1,0.9,0.3,1.3c0.2,0.5,0.5,0.9,0.8,1.2
							c0.7,0.6,1.6,1,2.8,1c1.6,0,2.7-0.5,3.4-1.6c0.3-0.5,0.5-1.2,0.5-1.8c0-1.1-0.4-1.9-1.1-2.6c-0.7-0.6-1.6-1-2.8-1
							C6.7,8.7,5.6,9.3,4.9,10.3L4.9,10.3L4.9,10.3z M9.9,10.4c0.5,0.4,0.8,1,0.8,1.8c0,0.3-0.1,0.6-0.2,0.9
							c-0.1,0.3-0.3,0.6-0.6,0.8c-0.4,0.4-1,0.6-1.6,0.6s-1.2-0.2-1.6-0.6c-0.5-0.4-0.8-1-0.8-1.8c0-0.7,0.3-1.3,0.8-1.8
							c0.4-0.4,1-0.6,1.6-0.6C8.9,9.8,9.4,10,9.9,10.4L9.9,10.4L9.9,10.4z M18.6,9.7c0.2-0.2,0.3-0.4,0.5-0.6C19.2,9,19.3,9,19.5,9
							V8.8h-2.6V9c0.2,0,0.3,0.1,0.3,0.3c0,0.1-0.1,0.2-0.2,0.4L15.8,11l-1-1.3c-0.1-0.2-0.2-0.3-0.2-0.4c0-0.1,0.1-0.2,0.3-0.3V8.8
							h-2.7l0,0.2c0.1,0,0.3,0,0.4,0.1c0.1,0.1,0.2,0.3,0.5,0.6l1.9,2.5l-2.1,2.6c-0.2,0.2-0.3,0.4-0.5,0.6
							c-0.1,0.1-0.2,0.1-0.4,0.1v0.2h2.6v-0.2c-0.2,0-0.3-0.1-0.3-0.3c0-0.1,0.1-0.2,0.2-0.4l1.3-1.6l1.3,1.6
							c0.1,0.2,0.2,0.3,0.2,0.3c0,0.1-0.1,0.2-0.3,0.3v0.2h2.7v-0.2c-0.1,0-0.3-0.1-0.4-0.2c-0.2-0.2-0.3-0.4-0.5-0.6l-2-2.6
							L18.6,9.7z"/>
					</g>
					<g id="Logo-coin-Copy-5" transform="translate(19.000000, 38.000000)">
						<polygon id="Polygon_1_1_" class="st3" points="12,23.9 3.5,20.4 0,12 3.5,3.6 12,0.1 20.5,3.6 24,12 20.5,20.4 						"/>
						<path id="OX_1_" class="st6" d="M4.9,10.3c-0.3,0.6-0.5,1.2-0.5,1.8c0,0.5,0.1,0.9,0.3,1.3c0.2,0.5,0.5,0.9,0.8,1.2
							c0.7,0.6,1.6,1,2.8,1c1.6,0,2.7-0.5,3.4-1.6c0.3-0.5,0.5-1.2,0.5-1.8c0-1.1-0.4-1.9-1.1-2.6c-0.7-0.6-1.6-1-2.8-1
							C6.7,8.7,5.6,9.3,4.9,10.3L4.9,10.3L4.9,10.3z M9.9,10.4c0.5,0.4,0.8,1,0.8,1.8c0,0.3-0.1,0.6-0.2,0.9
							c-0.1,0.3-0.3,0.6-0.6,0.8c-0.4,0.4-1,0.6-1.6,0.6s-1.2-0.2-1.6-0.6c-0.5-0.4-0.8-1-0.8-1.8c0-0.7,0.3-1.3,0.8-1.8
							c0.4-0.4,1-0.6,1.6-0.6C8.9,9.8,9.4,10,9.9,10.4L9.9,10.4L9.9,10.4z M18.6,9.7c0.2-0.2,0.3-0.4,0.5-0.6C19.2,9,19.3,9,19.5,9
							V8.8h-2.6V9c0.2,0,0.3,0.1,0.3,0.3c0,0.1-0.1,0.2-0.2,0.4L15.8,11l-1-1.3c-0.1-0.2-0.2-0.3-0.2-0.4c0-0.1,0.1-0.2,0.3-0.3V8.8
							h-2.7l0,0.2c0.1,0,0.3,0,0.4,0.1c0.1,0.1,0.2,0.3,0.5,0.6l1.9,2.5l-2.1,2.6c-0.2,0.2-0.3,0.4-0.5,0.6
							c-0.1,0.1-0.2,0.1-0.4,0.1v0.2h2.6v-0.2c-0.2,0-0.3-0.1-0.3-0.3c0-0.1,0.1-0.2,0.2-0.4l1.3-1.6l1.3,1.6
							c0.1,0.2,0.2,0.3,0.2,0.3c0,0.1-0.1,0.2-0.3,0.3v0.2h2.7v-0.2c-0.1,0-0.3-0.1-0.4-0.2c-0.2-0.2-0.3-0.4-0.5-0.6l-2-2.6
							L18.6,9.7z"/>
					</g>
					<g id="Logo-coin-Copy-3" transform="translate(38.000000, 38.000000)">
						<polygon id="Polygon_1_2_" class="st4" points="12,23.9 3.5,20.4 0,12 3.5,3.6 12,0.1 20.5,3.6 24,12 20.5,20.4 						"/>
						<path id="OX_2_" class="st6" d="M4.9,10.3c-0.3,0.6-0.5,1.2-0.5,1.8c0,0.5,0.1,0.9,0.3,1.3c0.2,0.5,0.5,0.9,0.8,1.2
							c0.7,0.6,1.6,1,2.8,1c1.6,0,2.7-0.5,3.4-1.6c0.3-0.5,0.5-1.2,0.5-1.8c0-1.1-0.4-1.9-1.1-2.6c-0.7-0.6-1.6-1-2.8-1
							C6.7,8.7,5.6,9.3,4.9,10.3L4.9,10.3L4.9,10.3z M9.9,10.4c0.5,0.4,0.8,1,0.8,1.8c0,0.3-0.1,0.6-0.2,0.9
							c-0.1,0.3-0.3,0.6-0.6,0.8c-0.4,0.4-1,0.6-1.6,0.6s-1.2-0.2-1.6-0.6c-0.5-0.4-0.8-1-0.8-1.8c0-0.7,0.3-1.3,0.8-1.8
							c0.4-0.4,1-0.6,1.6-0.6C8.9,9.8,9.4,10,9.9,10.4L9.9,10.4L9.9,10.4z M18.6,9.7c0.2-0.2,0.3-0.4,0.5-0.6C19.2,9,19.3,9,19.5,9
							V8.8h-2.6V9c0.2,0,0.3,0.1,0.3,0.3c0,0.1-0.1,0.2-0.2,0.4L15.8,11l-1-1.3c-0.1-0.2-0.2-0.3-0.2-0.4c0-0.1,0.1-0.2,0.3-0.3V8.8
							h-2.7l0,0.2c0.1,0,0.3,0,0.4,0.1c0.1,0.1,0.2,0.3,0.5,0.6l1.9,2.5l-2.1,2.6c-0.2,0.2-0.3,0.4-0.5,0.6
							c-0.1,0.1-0.2,0.1-0.4,0.1v0.2h2.6v-0.2c-0.2,0-0.3-0.1-0.3-0.3c0-0.1,0.1-0.2,0.2-0.4l1.3-1.6l1.3,1.6
							c0.1,0.2,0.2,0.3,0.2,0.3c0,0.1-0.1,0.2-0.3,0.3v0.2h2.7v-0.2c-0.1,0-0.3-0.1-0.4-0.2c-0.2-0.2-0.3-0.4-0.5-0.6l-2-2.6
							L18.6,9.7z"/>
					</g>
					<g id="Group-57" transform="translate(10.000000, 19.000000)">
						<g id="Logo-coin-Copy-7">
							<polygon id="Polygon_1_3_" class="st3" points="12,23.9 3.5,20.4 0,12 3.5,3.6 12,0.1 20.5,3.6 24,12 20.5,20.4 							"/>
							<path id="OX_3_" class="st6" d="M4.9,10.3c-0.3,0.6-0.5,1.2-0.5,1.8c0,0.5,0.1,0.9,0.3,1.3c0.2,0.5,0.5,0.9,0.8,1.2
								c0.7,0.6,1.6,1,2.8,1c1.6,0,2.7-0.5,3.4-1.6c0.3-0.5,0.5-1.2,0.5-1.8c0-1.1-0.4-1.9-1.1-2.6c-0.7-0.6-1.6-1-2.8-1
								C6.7,8.7,5.6,9.3,4.9,10.3L4.9,10.3L4.9,10.3z M9.9,10.4c0.5,0.4,0.8,1,0.8,1.8c0,0.3-0.1,0.6-0.2,0.9
								c-0.1,0.3-0.3,0.6-0.6,0.8c-0.4,0.4-1,0.6-1.6,0.6s-1.2-0.2-1.6-0.6c-0.5-0.4-0.8-1-0.8-1.8c0-0.7,0.3-1.3,0.8-1.8
								c0.4-0.4,1-0.6,1.6-0.6C8.9,9.8,9.4,10,9.9,10.4L9.9,10.4L9.9,10.4z M18.6,9.7c0.2-0.2,0.3-0.4,0.5-0.6C19.2,9,19.3,9,19.5,9
								V8.8h-2.6V9c0.2,0,0.3,0.1,0.3,0.3c0,0.1-0.1,0.2-0.2,0.4L15.8,11l-1-1.3c-0.1-0.2-0.2-0.3-0.2-0.4c0-0.1,0.1-0.2,0.3-0.3
								V8.8h-2.7l0,0.2c0.1,0,0.3,0,0.4,0.1c0.1,0.1,0.2,0.3,0.5,0.6l1.9,2.5l-2.1,2.6c-0.2,0.2-0.3,0.4-0.5,0.6
								c-0.1,0.1-0.2,0.1-0.4,0.1v0.2h2.6v-0.2c-0.2,0-0.3-0.1-0.3-0.3c0-0.1,0.1-0.2,0.2-0.4l1.3-1.6l1.3,1.6
								c0.1,0.2,0.2,0.3,0.2,0.3c0,0.1-0.1,0.2-0.3,0.3v0.2h2.7v-0.2c-0.1,0-0.3-0.1-0.4-0.2c-0.2-0.2-0.3-0.4-0.5-0.6l-2-2.6
								L18.6,9.7z"/>
						</g>
						<g id="Logo-coin-Copy-4" transform="translate(19.000000, 0.000000)">
							<polygon id="Polygon_1_4_" class="st4" points="12,23.9 3.5,20.4 0,12 3.5,3.6 12,0.1 20.5,3.6 24,12 20.5,20.4 							"/>
							<path id="OX_4_" class="st6" d="M4.9,10.3c-0.3,0.6-0.5,1.2-0.5,1.8c0,0.5,0.1,0.9,0.3,1.3c0.2,0.5,0.5,0.9,0.8,1.2
								c0.7,0.6,1.6,1,2.8,1c1.6,0,2.7-0.5,3.4-1.6c0.3-0.5,0.5-1.2,0.5-1.8c0-1.1-0.4-1.9-1.1-2.6c-0.7-0.6-1.6-1-2.8-1
								C6.7,8.7,5.6,9.3,4.9,10.3L4.9,10.3L4.9,10.3z M9.9,10.4c0.5,0.4,0.8,1,0.8,1.8c0,0.3-0.1,0.6-0.2,0.9
								c-0.1,0.3-0.3,0.6-0.6,0.8c-0.4,0.4-1,0.6-1.6,0.6s-1.2-0.2-1.6-0.6c-0.5-0.4-0.8-1-0.8-1.8c0-0.7,0.3-1.3,0.8-1.8
								c0.4-0.4,1-0.6,1.6-0.6C8.9,9.8,9.4,10,9.9,10.4L9.9,10.4L9.9,10.4z M18.6,9.7c0.2-0.2,0.3-0.4,0.5-0.6C19.2,9,19.3,9,19.5,9
								V8.8h-2.6V9c0.2,0,0.3,0.1,0.3,0.3c0,0.1-0.1,0.2-0.2,0.4L15.8,11l-1-1.3c-0.1-0.2-0.2-0.3-0.2-0.4c0-0.1,0.1-0.2,0.3-0.3
								V8.8h-2.7l0,0.2c0.1,0,0.3,0,0.4,0.1c0.1,0.1,0.2,0.3,0.5,0.6l1.9,2.5l-2.1,2.6c-0.2,0.2-0.3,0.4-0.5,0.6
								c-0.1,0.1-0.2,0.1-0.4,0.1v0.2h2.6v-0.2c-0.2,0-0.3-0.1-0.3-0.3c0-0.1,0.1-0.2,0.2-0.4l1.3-1.6l1.3,1.6
								c0.1,0.2,0.2,0.3,0.2,0.3c0,0.1-0.1,0.2-0.3,0.3v0.2h2.7v-0.2c-0.1,0-0.3-0.1-0.4-0.2c-0.2-0.2-0.3-0.4-0.5-0.6l-2-2.6
								L18.6,9.7z"/>
						</g>
					</g>
					<g id="Logo-coin-Copy-8" transform="translate(19.000000, 0.000000)">
						<polygon id="Polygon_1_5_" class="st4" points="12,23.9 3.5,20.4 0,12 3.5,3.6 12,0.1 20.5,3.6 24,12 20.5,20.4 						"/>
						<path id="OX_5_" class="st6" d="M4.9,10.3c-0.3,0.6-0.5,1.2-0.5,1.8c0,0.5,0.1,0.9,0.3,1.3c0.2,0.5,0.5,0.9,0.8,1.2
							c0.7,0.6,1.6,1,2.8,1c1.6,0,2.7-0.5,3.4-1.6c0.3-0.5,0.5-1.2,0.5-1.8c0-1.1-0.4-1.9-1.1-2.6c-0.7-0.6-1.6-1-2.8-1
							C6.7,8.7,5.6,9.3,4.9,10.3L4.9,10.3L4.9,10.3z M9.9,10.4c0.5,0.4,0.8,1,0.8,1.8c0,0.3-0.1,0.6-0.2,0.9
							c-0.1,0.3-0.3,0.6-0.6,0.8c-0.4,0.4-1,0.6-1.6,0.6s-1.2-0.2-1.6-0.6c-0.5-0.4-0.8-1-0.8-1.8c0-0.7,0.3-1.3,0.8-1.8
							c0.4-0.4,1-0.6,1.6-0.6C8.9,9.8,9.4,10,9.9,10.4L9.9,10.4L9.9,10.4z M18.6,9.7c0.2-0.2,0.3-0.4,0.5-0.6C19.2,9,19.3,9,19.5,9
							V8.8h-2.6V9c0.2,0,0.3,0.1,0.3,0.3c0,0.1-0.1,0.2-0.2,0.4L15.8,11l-1-1.3c-0.1-0.2-0.2-0.3-0.2-0.4c0-0.1,0.1-0.2,0.3-0.3V8.8
							h-2.7l0,0.2c0.1,0,0.3,0,0.4,0.1c0.1,0.1,0.2,0.3,0.5,0.6l1.9,2.5l-2.1,2.6c-0.2,0.2-0.3,0.4-0.5,0.6
							c-0.1,0.1-0.2,0.1-0.4,0.1v0.2h2.6v-0.2c-0.2,0-0.3-0.1-0.3-0.3c0-0.1,0.1-0.2,0.2-0.4l1.3-1.6l1.3,1.6
							c0.1,0.2,0.2,0.3,0.2,0.3c0,0.1-0.1,0.2-0.3,0.3v0.2h2.7v-0.2c-0.1,0-0.3-0.1-0.4-0.2c-0.2-0.2-0.3-0.4-0.5-0.6l-2-2.6
							L18.6,9.7z"/>
					</g>
				</g>
				<path id="_x3D_" class="st7" d="M129,29.4V24h-21v5.4H129z M129,39v-5.4h-21V39H129z"/>
			</g>
			<path id="Eurox-circulation" class="st7" d="M497.9,92v-1.8h-7.2v-4h5.7v-1.8h-5.7v-3.1h7v-1.8h-9V92H497.9z M500.4,86.7
				c0,1.8,0.5,3.2,1.5,4.1c1,1,2.2,1.4,3.8,1.4c1.6,0,2.8-0.5,3.8-1.5c1-1,1.5-2.3,1.5-4.1v-7.3h-2v7.3c0,2.4-1.3,3.6-3.3,3.6
				c-2,0-3.3-1.3-3.3-3.6v-7.3h-2V86.7z M516.3,92h-2V79.4h5.7c1.3,0,2.3,0.3,3,1c0.7,0.7,1.1,1.5,1.1,2.6c0,1.7-1,3.1-2.7,3.5
				l4,5.5h-2.4l-3.8-5.3h-3V92z M516.3,81.2v3.7h3.6c1.4,0,2.3-0.7,2.3-1.9c0-1.2-0.8-1.8-2.3-1.8H516.3z M530.4,89
				c0.8,0.9,1.9,1.3,3.1,1.3c1.2,0,2.3-0.4,3.1-1.3c0.8-0.9,1.3-2,1.3-3.3s-0.4-2.4-1.3-3.3c-0.8-0.9-1.9-1.4-3.1-1.4
				c-1.2,0-2.3,0.5-3.1,1.4c-0.8,0.9-1.3,2-1.3,3.3S529.5,88.1,530.4,89z M538.1,90.4c-1.2,1.2-2.8,1.9-4.6,1.9
				c-1.9,0-3.4-0.6-4.6-1.9c-1.2-1.3-1.8-2.8-1.8-4.7c0-1.9,0.6-3.4,1.8-4.6c1.2-1.3,2.8-1.9,4.6-1.9c1.9,0,3.4,0.6,4.6,1.9
				c1.2,1.2,1.8,2.8,1.8,4.6C539.9,87.6,539.3,89.1,538.1,90.4z M543.2,92l3.8-5.2l3.8,5.2h2.4l-5-6.9l4.2-5.7h-2.3l-3,4.2l-3-4.2
				h-2.3l4.2,5.8l-5,6.8H543.2z M463.9,111.2c1.4,0,2.6-0.3,3.7-1v-2c-1,0.8-2.2,1.2-3.6,1.2c-1.4,0-2.5-0.4-3.4-1.3
				c-0.9-0.9-1.3-2-1.3-3.4c0-1.3,0.4-2.5,1.3-3.3c0.9-0.9,2-1.3,3.3-1.3c1.2,0,2.4,0.3,3.4,1v-2c-1-0.6-2.1-0.8-3.4-0.8
				c-1.9,0-3.5,0.6-4.8,1.9c-1.3,1.2-1.9,2.8-1.9,4.7s0.6,3.5,1.9,4.7C460.5,110.6,462.1,111.2,463.9,111.2z M472.5,111V98.4h-2V111
				H472.5z M478.1,111h-2V98.4h5.7c1.3,0,2.3,0.3,3,1c0.7,0.7,1.1,1.5,1.1,2.6c0,1.7-1,3.1-2.7,3.5l4,5.5h-2.4l-3.8-5.3h-3V111z
				 M478.1,100.2v3.7h3.6c1.4,0,2.3-0.7,2.3-1.9c0-1.2-0.8-1.8-2.3-1.8H478.1z M495.5,111.2c1.4,0,2.6-0.3,3.7-1v-2
				c-1,0.8-2.2,1.2-3.6,1.2c-1.4,0-2.5-0.4-3.4-1.3c-0.9-0.9-1.3-2-1.3-3.4c0-1.3,0.4-2.5,1.3-3.3c0.9-0.9,2-1.3,3.3-1.3
				c1.2,0,2.4,0.3,3.4,1v-2c-1-0.6-2.1-0.8-3.4-0.8c-1.9,0-3.5,0.6-4.8,1.9c-1.3,1.2-1.9,2.8-1.9,4.7s0.6,3.5,1.9,4.7
				C492,110.6,493.6,111.2,495.5,111.2z M501.8,105.7c0,1.8,0.5,3.2,1.5,4.1c1,1,2.2,1.4,3.8,1.4c1.6,0,2.8-0.5,3.8-1.5
				s1.5-2.3,1.5-4.1v-7.3h-2v7.3c0,2.4-1.3,3.6-3.3,3.6c-2,0-3.3-1.3-3.3-3.6v-7.3h-2V105.7z M524.4,111v-1.8h-6.7V98.4h-2V111
				H524.4z M527.8,111h-2.1l5.5-12.7h1.9l5.5,12.7h-2.1l-1.4-3.1h-6L527.8,111z M532.1,100.8l-2.3,5.3h4.6L532.1,100.8z
				 M538.1,100.2v-1.8h10.3v1.8h-4.2V111h-2v-10.8H538.1z M553,111V98.4h-2V111H553z M559.5,108c0.8,0.9,1.9,1.3,3.1,1.3
				s2.3-0.4,3.1-1.3c0.8-0.9,1.3-2,1.3-3.3s-0.4-2.4-1.3-3.3c-0.8-0.9-1.9-1.4-3.1-1.4s-2.3,0.5-3.1,1.4c-0.8,0.9-1.3,2-1.3,3.3
				S558.6,107.1,559.5,108z M567.2,109.4c-1.2,1.2-2.8,1.9-4.6,1.9s-3.4-0.6-4.6-1.9c-1.2-1.3-1.8-2.8-1.8-4.7
				c0-1.9,0.6-3.4,1.8-4.6c1.2-1.3,2.8-1.9,4.6-1.9s3.4,0.6,4.6,1.9c1.2,1.2,1.8,2.8,1.8,4.6C569.1,106.6,568.5,108.1,567.2,109.4z
				 M574,111v-9.2l7.2,9.2h1.7V98.4h-1.9v9.1l-7.1-9.1h-1.7V111H574z"/>
			<path id="Fiat-reserves" class="st7" d="M677.3,92v-5.7h5.5v-1.8h-5.5v-3.3h7v-1.8h-8.9V92H677.3z M689,92V79.4h-2V92H689z
				 M693.6,92h-2.1l5.5-12.7h1.9l5.5,12.7h-2.1l-1.4-3.1h-6L693.6,92z M697.9,81.8l-2.3,5.3h4.6L697.9,81.8z M703.9,81.2v-1.8h10.3
				v1.8h-4.2V92h-2V81.2H703.9z M648.2,111h-2V98.4h5.7c1.3,0,2.3,0.3,3,1c0.7,0.7,1.1,1.5,1.1,2.6c0,1.7-1,3.1-2.7,3.5l4,5.5h-2.4
				l-3.8-5.3h-3V111z M648.2,100.2v3.7h3.6c1.4,0,2.3-0.7,2.3-1.9c0-1.2-0.8-1.8-2.3-1.8H648.2z M669,111v-1.8h-7.2v-4h5.7v-1.8
				h-5.7v-3.1h7v-1.8h-9V111H669z M675.6,111.2c1.4,0,2.5-0.3,3.5-1c0.9-0.7,1.4-1.6,1.4-2.8c-0.1-1.4-0.7-2.3-1.8-2.9
				c-0.8-0.4-1.3-0.6-2.3-0.9l-1.4-0.4c-0.3-0.1-0.9-0.3-1.1-0.5c-0.4-0.3-0.7-0.6-0.7-1.1c0-0.9,0.8-1.6,2.6-1.6
				c1.4,0,2.7,0.4,4,1.2v-2c-1.2-0.7-2.5-1-4-1c-2.8,0-4.6,1.3-4.6,3.4c0,1.2,0.4,2,1.3,2.5c0.5,0.3,0.9,0.5,1.3,0.6
				c0.4,0.1,0.9,0.3,1.6,0.5l0.3,0.1c0.8,0.2,1.2,0.3,1.7,0.6c0.3,0.1,0.5,0.3,0.6,0.4c0.3,0.3,0.6,0.7,0.6,1.2
				c0,1.2-1.3,1.9-2.9,1.9c-0.9,0-1.7-0.2-2.6-0.5c-0.8-0.3-1.5-0.7-2-1.2v2.1C672.1,110.8,673.7,111.2,675.6,111.2z M692.6,111
				v-1.8h-7.2v-4h5.7v-1.8h-5.7v-3.1h7v-1.8h-9V111H692.6z M697.2,111h-2V98.4h5.7c1.3,0,2.3,0.3,3,1c0.7,0.7,1.1,1.5,1.1,2.6
				c0,1.7-1,3.1-2.7,3.5l4,5.5H704l-3.8-5.3h-3V111z M697.2,100.2v3.7h3.6c1.4,0,2.3-0.7,2.3-1.9c0-1.2-0.8-1.8-2.3-1.8H697.2z
				 M714.5,111.1l5.4-12.7h-2.1l-4.2,9.9l-4.2-9.9h-2.2l5.4,12.7H714.5z M731.5,111v-1.8h-7.2v-4h5.7v-1.8h-5.7v-3.1h7v-1.8h-9V111
				H731.5z M738.2,111.2c1.4,0,2.5-0.3,3.5-1c0.9-0.7,1.4-1.6,1.4-2.8c-0.1-1.4-0.7-2.3-1.8-2.9c-0.8-0.4-1.3-0.6-2.3-0.9l-1.4-0.4
				c-0.3-0.1-0.9-0.3-1.1-0.5c-0.4-0.3-0.7-0.6-0.7-1.1c0-0.9,0.8-1.6,2.6-1.6c1.4,0,2.7,0.4,4,1.2v-2c-1.2-0.7-2.5-1-4-1
				c-2.8,0-4.6,1.3-4.6,3.4c0,1.2,0.4,2,1.3,2.5c0.5,0.3,0.9,0.5,1.3,0.6c0.4,0.1,0.9,0.3,1.6,0.5l0.3,0.1c0.8,0.2,1.2,0.3,1.7,0.6
				c0.3,0.1,0.5,0.3,0.6,0.4c0.3,0.3,0.6,0.7,0.6,1.2c0,1.2-1.3,1.9-2.9,1.9c-0.9,0-1.7-0.2-2.6-0.5c-0.8-0.3-1.5-0.7-2-1.2v2.1
				C734.7,110.8,736.3,111.2,738.2,111.2z"/>
			<g id="Group-84" transform="translate(0.000000, 182.000000)">
				<g id="Shape">
					<g class="st8">
						<path id="path-1_2_" d="M68,0c37.6,0,68,30.4,68,68s-30.4,68-68,68S0,105.6,0,68S30.4,0,68,0z"/>
					</g>
					<g>
						<path id="path-1_1_" class="st2" d="M68,0c37.6,0,68,30.4,68,68s-30.4,68-68,68S0,105.6,0,68S30.4,0,68,0z"/>
					</g>
				</g>
				<path id="User" class="st7" d="M43.5,102.7c0,1.8,0.5,3.2,1.5,4.1c1,1,2.2,1.4,3.8,1.4c1.6,0,2.8-0.5,3.8-1.5
					c1-1,1.5-2.3,1.5-4.1v-7.3h-2v7.3c0,2.4-1.3,3.6-3.3,3.6s-3.3-1.3-3.3-3.6v-7.3h-2V102.7z M61.3,108.2c1.4,0,2.5-0.3,3.5-1
					s1.4-1.6,1.4-2.8c-0.1-1.4-0.7-2.3-1.8-2.9c-0.8-0.4-1.4-0.6-2.3-0.9l-1.4-0.4c-0.3-0.1-0.9-0.3-1.1-0.5
					c-0.4-0.3-0.7-0.6-0.7-1.1c0-0.9,0.8-1.6,2.6-1.6c1.4,0,2.7,0.4,4,1.2v-2c-1.2-0.7-2.5-1-4-1c-2.8,0-4.6,1.3-4.6,3.4
					c0,1.2,0.4,2,1.3,2.5c0.5,0.3,0.9,0.5,1.3,0.6c0.4,0.1,0.9,0.3,1.6,0.5l0.3,0.1c0.8,0.2,1.2,0.3,1.7,0.6
					c0.3,0.1,0.5,0.3,0.6,0.4c0.3,0.3,0.6,0.7,0.6,1.2c0,1.2-1.3,1.9-2.9,1.9c-0.9,0-1.7-0.2-2.6-0.5c-0.8-0.3-1.5-0.7-2-1.2v2.1
					C57.8,107.8,59.4,108.2,61.3,108.2z M78.2,108v-1.8H71v-4h5.7v-1.8H71v-3.1h7v-1.8h-9V108H78.2z M82.9,108h-2V95.4h5.7
					c1.3,0,2.3,0.3,3,1c0.7,0.7,1.1,1.5,1.1,2.6c0,1.7-1,3.1-2.7,3.5l4,5.5h-2.4l-3.8-5.3h-3V108z M82.9,97.2v3.7h3.6
					c1.4,0,2.3-0.7,2.3-1.9c0-1.2-0.8-1.8-2.3-1.8H82.9z"/>
				<g id="account-circle" transform="translate(48.000000, 38.000000)">
					<path id="Shape_1_" class="st4" d="M20,34.4c-5,0-9.4-2.6-12-6.4c0.1-4,8-6.2,12-6.2S31.9,24,32,28C29.4,31.8,25,34.4,20,34.4
						L20,34.4z M20,6c3.3,0,6,2.7,6,6s-2.7,6-6,6s-6-2.7-6-6S16.7,6,20,6L20,6z M20,0C9,0,0,9,0,20c0,5.3,2.1,10.4,5.9,14.1
						S14.7,40,20,40s10.4-2.1,14.1-5.9S40,25.3,40,20C40,8.9,31,0,20,0z"/>
				</g>
			</g>
			<g id="Group-78" transform="translate(528.000000, 170.000000)">
				<g id="Shape_2_">
					<g class="st9">
						<path id="path-3_2_" d="M80,0c44.2,0,80,35.8,80,80s-35.8,80-80,80S0,124.2,0,80S35.8,0,80,0z"/>
					</g>
					<g>
						<path id="path-3_1_" class="st2" d="M80,0c44.2,0,80,35.8,80,80s-35.8,80-80,80S0,124.2,0,80S35.8,0,80,0z"/>
					</g>
				</g>
				<g id="Logo-coin-Copy" transform="translate(76.000000, 24.000000)">
					<polygon id="Polygon_1_6_" class="st5" points="20,39.9 5.9,34.1 0.1,20 5.9,5.9 20,0.1 34.2,5.9 40,20 34.2,34.1 					"/>
					<path id="OX_6_" class="st6" d="M8.2,17.2c-0.6,0.9-0.9,2-0.9,3.1c0,0.8,0.1,1.5,0.4,2.2c0.3,0.8,0.8,1.5,1.4,2
						c1.1,1.1,2.7,1.6,4.6,1.6c2.6,0,4.5-0.9,5.6-2.7c0.6-0.9,0.9-1.9,0.9-3c0-1.8-0.6-3.2-1.8-4.3c-1.1-1.1-2.7-1.6-4.7-1.6
						C11.1,14.5,9.3,15.4,8.2,17.2L8.2,17.2L8.2,17.2z M16.5,17.3c0.8,0.7,1.3,1.7,1.3,3c0,0.5-0.1,1-0.3,1.5c-0.2,0.5-0.5,1-1,1.4
						c-0.7,0.6-1.6,1-2.7,1s-2-0.3-2.7-1c-0.8-0.7-1.3-1.7-1.3-2.9c0-1.2,0.4-2.2,1.3-2.9c0.7-0.6,1.6-1,2.7-1
						C14.8,16.4,15.7,16.7,16.5,17.3L16.5,17.3L16.5,17.3z M31,16.1c0.3-0.3,0.6-0.7,0.9-1c0.2-0.1,0.4-0.2,0.6-0.2v-0.3H28v0.3
						c0.4,0.1,0.6,0.2,0.6,0.5c0,0.1-0.1,0.4-0.4,0.7l-1.8,2.2l-1.7-2.2c-0.2-0.3-0.4-0.5-0.4-0.7c0-0.2,0.2-0.4,0.5-0.5v-0.3h-4.5
						l0,0.3c0.2,0,0.5,0.1,0.6,0.2c0.1,0.1,0.4,0.4,0.8,1l3.2,4.1l-3.4,4.3c-0.3,0.3-0.5,0.7-0.8,1c-0.2,0.1-0.4,0.2-0.6,0.2v0.3
						h4.3v-0.3c-0.4,0-0.6-0.2-0.6-0.5c0-0.1,0.1-0.3,0.3-0.6l2.1-2.6l2.1,2.7c0.2,0.3,0.3,0.4,0.3,0.6c0,0.2-0.2,0.4-0.5,0.4v0.3
						h4.5v-0.3c-0.2,0-0.5-0.1-0.7-0.3c-0.3-0.3-0.6-0.6-0.8-0.9l-3.4-4.4L31,16.1z"/>
				</g>
				<g id="account-circle_1_" transform="translate(43.000000, 24.000000)">
					<path id="Shape_3_" class="st4" d="M20,34.4c-5,0-9.4-2.6-12-6.4c0.1-4,8-6.2,12-6.2S31.9,24,32,28C29.4,31.8,25,34.4,20,34.4
						L20,34.4z M20,6c3.3,0,6,2.7,6,6s-2.7,6-6,6s-6-2.7-6-6S16.7,6,20,6L20,6z M20,0C9,0,0,9,0,20c0,5.3,2.1,10.4,5.9,14.1
						S14.7,40,20,40s10.4-2.1,14.1-5.9S40,25.3,40,20C40,8.9,31,0,20,0z"/>
				</g>
				<path id="Eurox-bank-Account" class="st7" d="M57.4,94v-1.8h-7.2v-4h5.7v-1.8h-5.7v-3.1h7v-1.8h-9V94H57.4z M59.9,88.7
					c0,1.8,0.5,3.2,1.5,4.1c1,1,2.2,1.4,3.8,1.4s2.8-0.5,3.8-1.5c1-1,1.5-2.3,1.5-4.1v-7.3h-2v7.3c0,2.4-1.3,3.6-3.3,3.6
					s-3.3-1.3-3.3-3.6v-7.3h-2V88.7z M75.8,94h-2V81.4h5.7c1.3,0,2.3,0.3,3,1s1.1,1.5,1.1,2.6c0,1.7-1,3.1-2.7,3.5l4,5.5h-2.4
					l-3.8-5.3h-3V94z M75.8,83.2v3.7h3.6c1.4,0,2.3-0.7,2.3-1.9c0-1.2-0.8-1.8-2.3-1.8H75.8z M89.9,91c0.8,0.9,1.9,1.3,3.1,1.3
					c1.2,0,2.3-0.4,3.1-1.3c0.8-0.9,1.3-2,1.3-3.3s-0.4-2.4-1.3-3.3C95.3,83.5,94.2,83,93,83c-1.2,0-2.3,0.5-3.1,1.4
					c-0.8,0.9-1.3,2-1.3,3.3S89,90.1,89.9,91z M97.6,92.4c-1.2,1.2-2.8,1.9-4.6,1.9c-1.9,0-3.4-0.6-4.6-1.9
					c-1.2-1.3-1.8-2.8-1.8-4.7c0-1.9,0.6-3.4,1.8-4.6c1.2-1.3,2.8-1.9,4.6-1.9c1.9,0,3.4,0.6,4.6,1.9c1.2,1.2,1.8,2.8,1.8,4.6
					C99.4,89.6,98.8,91.1,97.6,92.4z M102.7,94l3.8-5.2l3.8,5.2h2.4l-5-6.9l4.2-5.7h-2.3l-3,4.2l-3-4.2h-2.3l4.2,5.8l-5,6.8H102.7z
					 M60.6,113h-6.2v-12.6h5.7c2.2,0,3.7,1.2,3.7,3.1c0,1.3-0.7,2.2-1.7,2.6c1.5,0.3,2.7,1.5,2.7,3.4c0,1.1-0.4,1.9-1.2,2.6
					C62.9,112.7,61.9,113,60.6,113z M56.4,107.2v4h3.9c1.5,0,2.5-0.7,2.5-2c0-1.2-0.9-1.9-2.5-1.9H56.4z M56.4,102.2v3.3h3.4
					c1.3,0,2.1-0.6,2.1-1.6c0-1.1-0.8-1.6-2.1-1.6H56.4z M68.7,113h-2.1l5.5-12.7H74l5.5,12.7h-2.1l-1.4-3.1h-6L68.7,113z M73,102.8
					l-2.3,5.3h4.6L73,102.8z M83.8,113v-9.2l7.2,9.2h1.7v-12.6h-1.9v9.1l-7.1-9.1h-1.7V113H83.8z M98.1,113v-6l5.9,6h2.7l-6.8-6.8
					l5.8-5.8h-2.5l-5.2,5.1v-5.1h-2V113H98.1z M35.8,132h-2.1l5.5-12.7h1.9l5.5,12.7h-2.1l-1.4-3.1h-6L35.8,132z M40.1,121.8
					l-2.3,5.3h4.6L40.1,121.8z M54.2,132.2c1.4,0,2.6-0.3,3.7-1v-2c-1,0.8-2.2,1.2-3.6,1.2c-1.3,0-2.5-0.4-3.4-1.3
					c-0.9-0.9-1.3-2-1.3-3.4c0-1.3,0.4-2.5,1.3-3.3c0.9-0.9,2-1.3,3.3-1.3c1.2,0,2.4,0.3,3.4,1v-2c-1-0.6-2.1-0.8-3.4-0.8
					c-1.9,0-3.5,0.6-4.8,1.9c-1.3,1.2-1.9,2.8-1.9,4.7s0.6,3.5,1.9,4.7C50.7,131.6,52.3,132.2,54.2,132.2z M66.7,132.2
					c1.4,0,2.6-0.3,3.7-1v-2c-1,0.8-2.2,1.2-3.6,1.2c-1.3,0-2.5-0.4-3.4-1.3c-0.9-0.9-1.3-2-1.3-3.4c0-1.3,0.4-2.5,1.3-3.3
					c0.9-0.9,2-1.3,3.3-1.3c1.2,0,2.4,0.3,3.4,1v-2c-1-0.6-2.1-0.8-3.4-0.8c-1.9,0-3.5,0.6-4.8,1.9c-1.3,1.2-1.9,2.8-1.9,4.7
					s0.6,3.5,1.9,4.7C63.2,131.6,64.8,132.2,66.7,132.2z M75.8,129c0.8,0.9,1.9,1.3,3.1,1.3c1.2,0,2.3-0.5,3.1-1.3
					c0.8-0.9,1.3-2,1.3-3.3s-0.4-2.4-1.3-3.3c-0.8-0.9-1.9-1.4-3.1-1.4c-1.2,0-2.3,0.5-3.1,1.4c-0.8,0.9-1.3,2-1.3,3.3
					S75,128.1,75.8,129z M83.6,130.4c-1.2,1.2-2.8,1.9-4.6,1.9c-1.9,0-3.4-0.6-4.6-1.9c-1.2-1.3-1.8-2.8-1.8-4.7
					c0-1.9,0.6-3.4,1.8-4.6c1.2-1.3,2.8-1.9,4.6-1.9c1.9,0,3.4,0.6,4.6,1.9c1.2,1.2,1.8,2.8,1.8,4.6
					C85.4,127.6,84.8,129.1,83.6,130.4z M88.3,126.7c0,1.8,0.5,3.2,1.5,4.1c1,1,2.2,1.4,3.8,1.4c1.6,0,2.8-0.5,3.8-1.5
					c1-1,1.5-2.3,1.5-4.1v-7.3h-2v7.3c0,2.4-1.3,3.6-3.3,3.6c-2,0-3.3-1.3-3.3-3.6v-7.3h-2V126.7z M104.1,132v-9.2l7.2,9.2h1.7
					v-12.6H111v9.1l-7.1-9.1h-1.7V132H104.1z M115.5,121.2h4.2V132h2v-10.8h4.2v-1.8h-10.3V121.2z"/>
			</g>
			<g id="Group-87" transform="translate(1080.000000, 182.000000)">
				<g id="Shape_4_">
					<g class="st10">
						<path id="path-5_2_" d="M68,0c37.6,0,68,30.4,68,68s-30.4,68-68,68S0,105.6,0,68S30.4,0,68,0z"/>
					</g>
					<g>
						<path id="path-5_1_" class="st2" d="M68,0c37.6,0,68,30.4,68,68s-30.4,68-68,68S0,105.6,0,68S30.4,0,68,0z"/>
					</g>
				</g>
				<path id="User_1_" class="st7" d="M44.5,102.7c0,1.8,0.5,3.2,1.5,4.1c1,1,2.2,1.4,3.8,1.4c1.6,0,2.8-0.5,3.8-1.5
					c1-1,1.5-2.3,1.5-4.1v-7.3h-2v7.3c0,2.4-1.3,3.6-3.3,3.6s-3.3-1.3-3.3-3.6v-7.3h-2V102.7z M62.3,108.2c1.4,0,2.5-0.3,3.5-1
					s1.4-1.6,1.4-2.8c-0.1-1.4-0.7-2.3-1.8-2.9c-0.8-0.4-1.3-0.6-2.3-0.9l-1.4-0.4c-0.3-0.1-0.9-0.3-1.1-0.5
					c-0.4-0.3-0.7-0.6-0.7-1.1c0-0.9,0.8-1.6,2.6-1.6c1.4,0,2.7,0.4,4,1.2v-2c-1.2-0.7-2.5-1-4-1c-2.8,0-4.6,1.3-4.6,3.4
					c0,1.2,0.4,2,1.3,2.5c0.5,0.3,0.9,0.5,1.3,0.6c0.4,0.1,0.9,0.3,1.6,0.5l0.3,0.1c0.8,0.2,1.2,0.3,1.7,0.6
					c0.3,0.1,0.5,0.3,0.6,0.4c0.3,0.3,0.6,0.7,0.6,1.2c0,1.2-1.3,1.9-2.9,1.9c-0.9,0-1.7-0.2-2.6-0.5c-0.8-0.3-1.5-0.7-2-1.2v2.1
					C58.8,107.8,60.4,108.2,62.3,108.2z M79.2,108v-1.8H72v-4h5.7v-1.8H72v-3.1h7v-1.8h-9V108H79.2z M83.9,108h-2V95.4h5.7
					c1.3,0,2.3,0.3,3,1c0.7,0.7,1.1,1.5,1.1,2.6c0,1.7-1,3.1-2.7,3.5l4,5.5h-2.4l-3.8-5.3h-3V108z M83.9,97.2v3.7h3.6
					c1.4,0,2.3-0.7,2.3-1.9c0-1.2-0.8-1.8-2.3-1.8H83.9z"/>
				<g id="account-circle_2_" transform="translate(48.000000, 38.000000)">
					<path id="Shape_5_" class="st4" d="M20,34.4c-5,0-9.4-2.6-12-6.4c0.1-4,8-6.2,12-6.2S31.9,24,32,28C29.4,31.8,25,34.4,20,34.4
						L20,34.4z M20,6c3.3,0,6,2.7,6,6s-2.7,6-6,6s-6-2.7-6-6S16.7,6,20,6L20,6z M20,0C9,0,0,9,0,20c0,5.3,2.1,10.4,5.9,14.1
						S14.7,40,20,40s10.4-2.1,14.1-5.9S40,25.3,40,20C40,8.9,31,0,20,0z"/>
				</g>
			</g>
			<g id="Group-83" transform="translate(416.000000, 131.000000)">
				<g id="Shape_6_">
					<g class="st11">
						<path id="path-7_2_" d="M68,0c37.6,0,68,30.4,68,68s-30.4,68-68,68S0,105.6,0,68S30.4,0,68,0z"/>
					</g>
					<g>
						<path id="path-7_1_" class="st6" d="M68,0c37.6,0,68,30.4,68,68s-30.4,68-68,68S0,105.6,0,68S30.4,0,68,0z"/>
					</g>
				</g>
				<path id="Fiat-payment" class="st7" d="M50.8,96v-5.7h5.5v-1.8h-5.5v-3.3h7v-1.8h-8.9V96H50.8z M62.5,96V83.4h-2V96H62.5z
					 M67.1,96H65l5.5-12.7h1.9L77.9,96h-2.1l-1.4-3.1h-6L67.1,96z M71.4,85.8l-2.3,5.3h4.6L71.4,85.8z M77.4,85.2v-1.8h10.3v1.8
					h-4.2V96h-2V85.2H77.4z M26.7,115h-2v-12.6h5.4c1.3,0,2.3,0.3,3.1,1c0.8,0.7,1.1,1.5,1.1,2.6c0,1.1-0.4,2-1.1,2.7
					c-0.7,0.7-1.8,1-3.1,1h-3.4V115z M26.7,104.2v3.8H30c1.5,0,2.4-0.7,2.4-1.9c0-1.2-0.9-1.9-2.4-1.9H26.7z M36.7,115h-2.1
					l5.5-12.7H42l5.5,12.7h-2.1l-1.4-3.1h-6L36.7,115z M41,104.8l-2.3,5.3h4.6L41,104.8z M53.7,115h-2v-5.7l-4.9-6.9h2.3l3.6,5.1
					l3.6-5.1h2.2l-4.9,6.8V115z M62.7,115v-9.6l3.5,4.8h1.2l3.5-4.8v9.6h2v-12.6h-2l-4,5.7l-4.1-5.7h-2V115H62.7z M85.6,115v-1.8
					h-7.2v-4H84v-1.8h-5.7v-3.1h7v-1.8h-9V115H85.6z M90.2,115v-9.2l7.2,9.2h1.7v-12.6h-1.9v9.1l-7.1-9.1h-1.7V115H90.2z
					 M101.6,104.2h4.2V115h2v-10.8h4.2v-1.8h-10.3V104.2z"/>
				<path id="Combined-Shape_1_" class="st4" d="M68,67c-11,0-20-9-20-20s9-20,20-20s20,9,20,20S79,67,68,67z M70.6,44.7h-3.8
					c0.7-1.4,1.9-2.1,3.7-2.1c1,0,2,0.3,2.9,0.8v-2.7c-0.9-0.5-2-0.7-3.2-0.7c-1.6,0-3,0.4-4.1,1.3s-1.9,2-2.3,3.4H62v1.7h1.4
					c0,0.3,0,0.5,0,0.7c0,0.3,0,0.5,0,0.7H62v1.7h1.6c0.4,1.5,1.2,2.7,2.3,3.7c1.1,0.9,2.6,1.4,4.2,1.4c1.4,0,2.6-0.3,3.5-0.8v-2.8
					c-0.9,0.7-1.9,1-3.2,1c-1.8,0-3.2-0.9-3.8-2.4h3.9v-1.7h-4.3c0-0.2,0-0.4,0-0.6c0-0.2,0-0.4,0-0.7h4.3V44.7z"/>
			</g>
			<g id="Group-83-Copy" transform="translate(664.000000, 131.000000)">
				<g id="Shape_7_">
					<g class="st12">
						<path id="path-9_2_" d="M68,0c37.6,0,68,30.4,68,68s-30.4,68-68,68S0,105.6,0,68S30.4,0,68,0z"/>
					</g>
					<g>
						<path id="path-9_1_" class="st6" d="M68,0c37.6,0,68,30.4,68,68s-30.4,68-68,68S0,105.6,0,68S30.4,0,68,0z"/>
					</g>
				</g>
				<path id="Redeem-token" class="st7" d="M31.9,97h-2V84.4h5.7c1.3,0,2.3,0.3,3,1c0.7,0.7,1.1,1.5,1.1,2.6c0,1.7-1,3.1-2.7,3.5
					l4,5.5h-2.4l-3.8-5.3h-3V97z M31.9,86.2v3.7h3.6c1.4,0,2.3-0.7,2.3-1.9c0-1.2-0.8-1.8-2.3-1.8H31.9z M52.7,97v-1.8h-7.2v-4h5.7
					v-1.8h-5.7v-3.1h7v-1.8h-9V97H52.7z M59.8,97h-4.4V84.4h4.4c2,0,3.7,0.6,4.9,1.8c1.3,1.2,1.9,2.7,1.9,4.5c0,1.9-0.6,3.4-1.9,4.6
					C63.5,96.4,61.9,97,59.8,97z M57.4,86.2v9h2.3c1.6,0,2.8-0.4,3.7-1.2c0.9-0.8,1.3-1.9,1.3-3.3c0-1.4-0.5-2.5-1.3-3.3
					c-0.9-0.8-2.1-1.2-3.7-1.2H57.4z M79,97v-1.8h-7.2v-4h5.7v-1.8h-5.7v-3.1h7v-1.8h-9V97H79z M90.9,97v-1.8h-7.2v-4h5.7v-1.8h-5.7
					v-3.1h7v-1.8h-9V97H90.9z M95.5,97v-9.6l3.5,4.8h1.2l3.5-4.8V97h2V84.4h-2l-4,5.7l-4.1-5.7h-2V97H95.5z M36,105.2h4.2V116h2
					v-10.8h4.2v-1.8H36V105.2z M50.8,113c0.8,0.9,1.9,1.3,3.1,1.3s2.3-0.4,3.1-1.3c0.8-0.9,1.3-2,1.3-3.3s-0.4-2.4-1.3-3.3
					c-0.8-0.9-1.9-1.4-3.1-1.4s-2.3,0.5-3.1,1.4c-0.8,0.9-1.3,2-1.3,3.3S49.9,112.1,50.8,113z M58.5,114.4c-1.2,1.2-2.8,1.9-4.6,1.9
					s-3.4-0.6-4.6-1.9c-1.2-1.3-1.8-2.8-1.8-4.7c0-1.9,0.6-3.4,1.8-4.6c1.2-1.3,2.8-1.9,4.6-1.9s3.4,0.6,4.6,1.9
					c1.2,1.2,1.8,2.8,1.8,4.6C60.3,111.6,59.7,113.1,58.5,114.4z M65.4,116v-6l5.9,6H74l-6.8-6.8l5.8-5.8h-2.5l-5.2,5.1v-5.1h-2V116
					H65.4z M85.2,116v-1.8H78v-4h5.7v-1.8H78v-3.1h7v-1.8h-9V116H85.2z M89.9,116v-9.2L97,116h1.7v-12.6h-1.9v9.1l-7.1-9.1h-1.7V116
					H89.9z"/>
				<g id="Logo-coin-Copy_1_" transform="translate(48.000000, 27.000000)">
					<polygon id="Polygon_1_7_" class="st5" points="20,39.9 5.9,34.1 0.1,20 5.9,5.9 20,0.1 34.2,5.9 40,20 34.2,34.1 					"/>
					<path id="OX_7_" class="st6" d="M8.2,17.2c-0.6,0.9-0.9,2-0.9,3.1c0,0.8,0.1,1.5,0.4,2.2c0.3,0.8,0.8,1.5,1.4,2
						c1.1,1.1,2.7,1.6,4.6,1.6c2.6,0,4.5-0.9,5.6-2.7c0.6-0.9,0.9-1.9,0.9-3c0-1.8-0.6-3.2-1.8-4.3c-1.1-1.1-2.7-1.6-4.7-1.6
						C11.1,14.5,9.3,15.4,8.2,17.2L8.2,17.2L8.2,17.2z M16.5,17.3c0.8,0.7,1.3,1.7,1.3,3c0,0.5-0.1,1-0.3,1.5c-0.2,0.5-0.5,1-1,1.4
						c-0.7,0.6-1.6,1-2.7,1s-2-0.3-2.7-1c-0.8-0.7-1.3-1.7-1.3-2.9c0-1.2,0.4-2.2,1.3-2.9c0.7-0.6,1.6-1,2.7-1
						C14.8,16.4,15.7,16.7,16.5,17.3L16.5,17.3L16.5,17.3z M31,16.1c0.3-0.3,0.6-0.7,0.9-1c0.2-0.1,0.4-0.2,0.6-0.2v-0.3H28v0.3
						c0.4,0.1,0.6,0.2,0.6,0.5c0,0.1-0.1,0.4-0.4,0.7l-1.8,2.2l-1.7-2.2c-0.2-0.3-0.4-0.5-0.4-0.7c0-0.2,0.2-0.4,0.5-0.5v-0.3h-4.5
						l0,0.3c0.2,0,0.5,0.1,0.6,0.2c0.1,0.1,0.4,0.4,0.8,1l3.2,4.1l-3.4,4.3c-0.3,0.3-0.5,0.7-0.8,1c-0.2,0.1-0.4,0.2-0.6,0.2v0.3
						h4.3v-0.3c-0.4,0-0.6-0.2-0.6-0.5c0-0.1,0.1-0.3,0.3-0.6l2.1-2.6l2.1,2.7c0.2,0.3,0.3,0.4,0.3,0.6c0,0.2-0.2,0.4-0.5,0.4v0.3
						h4.5v-0.3c-0.2,0-0.5-0.1-0.7-0.3c-0.3-0.3-0.6-0.6-0.8-0.9l-3.4-4.4L31,16.1z"/>
				</g>
			</g>
			<g id="Group-86" transform="translate(80.000000, 267.000000)">
				<g id="Shape_8_">
					<g class="st13">
						<path id="path-11_2_" d="M68,0c37.6,0,68,30.4,68,68s-30.4,68-68,68S0,105.6,0,68S30.4,0,68,0z"/>
					</g>
					<g>
						<path id="path-11_1_" class="st6" d="M68,0c37.6,0,68,30.4,68,68s-30.4,68-68,68S0,105.6,0,68S30.4,0,68,0z"/>
					</g>
				</g>
				<g id="Logo-coin-Copy_2_" transform="translate(48.000000, 27.000000)">
					<polygon id="Polygon_1_8_" class="st5" points="20,39.9 5.9,34.1 0.1,20 5.9,5.9 20,0.1 34.2,5.9 40,20 34.2,34.1 					"/>
					<path id="OX_8_" class="st6" d="M8.2,17.2c-0.6,0.9-0.9,2-0.9,3.1c0,0.8,0.1,1.5,0.4,2.2c0.3,0.8,0.8,1.5,1.4,2
						c1.1,1.1,2.7,1.6,4.6,1.6c2.6,0,4.5-0.9,5.6-2.7c0.6-0.9,0.9-1.9,0.9-3c0-1.8-0.6-3.2-1.8-4.3c-1.1-1.1-2.7-1.6-4.7-1.6
						C11.1,14.5,9.3,15.4,8.2,17.2L8.2,17.2L8.2,17.2z M16.5,17.3c0.8,0.7,1.3,1.7,1.3,3c0,0.5-0.1,1-0.3,1.5c-0.2,0.5-0.5,1-1,1.4
						c-0.7,0.6-1.6,1-2.7,1s-2-0.3-2.7-1c-0.8-0.7-1.3-1.7-1.3-2.9c0-1.2,0.4-2.2,1.3-2.9c0.7-0.6,1.6-1,2.7-1
						C14.8,16.4,15.7,16.7,16.5,17.3L16.5,17.3L16.5,17.3z M31,16.1c0.3-0.3,0.6-0.7,0.9-1c0.2-0.1,0.4-0.2,0.6-0.2v-0.3H28v0.3
						c0.4,0.1,0.6,0.2,0.6,0.5c0,0.1-0.1,0.4-0.4,0.7l-1.8,2.2l-1.7-2.2c-0.2-0.3-0.4-0.5-0.4-0.7c0-0.2,0.2-0.4,0.5-0.5v-0.3h-4.5
						l0,0.3c0.2,0,0.5,0.1,0.6,0.2c0.1,0.1,0.4,0.4,0.8,1l3.2,4.1l-3.4,4.3c-0.3,0.3-0.5,0.7-0.8,1c-0.2,0.1-0.4,0.2-0.6,0.2v0.3
						h4.3v-0.3c-0.4,0-0.6-0.2-0.6-0.5c0-0.1,0.1-0.3,0.3-0.6l2.1-2.6l2.1,2.7c0.2,0.3,0.3,0.4,0.3,0.6c0,0.2-0.2,0.4-0.5,0.4v0.3
						h4.5v-0.3c-0.2,0-0.5-0.1-0.7-0.3c-0.3-0.3-0.6-0.6-0.8-0.9l-3.4-4.4L31,16.1z"/>
				</g>
				<path id="Credit-token" class="st7" d="M40.7,97.2c1.4,0,2.6-0.3,3.7-1v-2c-1,0.8-2.2,1.2-3.6,1.2c-1.4,0-2.5-0.4-3.4-1.3
					c-0.9-0.9-1.3-2-1.3-3.4c0-1.3,0.4-2.5,1.3-3.3c0.9-0.9,2-1.3,3.3-1.3c1.2,0,2.4,0.3,3.4,1v-2c-1-0.6-2.1-0.8-3.4-0.8
					c-1.9,0-3.5,0.6-4.8,1.9c-1.3,1.2-1.9,2.8-1.9,4.7s0.6,3.5,1.9,4.7C37.3,96.6,38.9,97.2,40.7,97.2z M49.2,97h-2V84.4H53
					c1.3,0,2.3,0.3,3,1c0.7,0.7,1.1,1.5,1.1,2.6c0,1.7-1,3.1-2.7,3.5l4,5.5H56l-3.8-5.3h-3V97z M49.2,86.2v3.7h3.6
					c1.4,0,2.3-0.7,2.3-1.9c0-1.2-0.8-1.8-2.3-1.8H49.2z M70,97v-1.8h-7.2v-4h5.7v-1.8h-5.7v-3.1h7v-1.8h-9V97H70z M77.1,97h-4.4
					V84.4h4.4c2,0,3.7,0.6,4.9,1.8s1.9,2.7,1.9,4.5c0,1.9-0.6,3.4-1.9,4.6C80.8,96.4,79.2,97,77.1,97z M74.7,86.2v9h2.3
					c1.6,0,2.8-0.4,3.7-1.2c0.9-0.8,1.3-1.9,1.3-3.3c0-1.4-0.5-2.5-1.3-3.3c-0.9-0.8-2.1-1.2-3.7-1.2H74.7z M89.1,97V84.4h-2V97
					H89.1z M91.7,86.2h4.2V97h2V86.2h4.2v-1.8H91.7V86.2z M36,105.2h4.2V116h2v-10.8h4.2v-1.8H36V105.2z M50.8,113
					c0.8,0.9,1.9,1.3,3.1,1.3s2.3-0.4,3.1-1.3c0.8-0.9,1.3-2,1.3-3.3s-0.4-2.4-1.3-3.3c-0.8-0.9-1.9-1.4-3.1-1.4s-2.3,0.5-3.1,1.4
					c-0.8,0.9-1.3,2-1.3,3.3S49.9,112.1,50.8,113z M58.5,114.4c-1.2,1.2-2.8,1.9-4.6,1.9s-3.4-0.6-4.6-1.9c-1.2-1.3-1.8-2.8-1.8-4.7
					c0-1.9,0.6-3.4,1.8-4.6c1.2-1.3,2.8-1.9,4.6-1.9s3.4,0.6,4.6,1.9c1.2,1.2,1.8,2.8,1.8,4.6C60.3,111.6,59.7,113.1,58.5,114.4z
					 M65.4,116v-6l5.9,6H74l-6.8-6.8l5.8-5.8h-2.5l-5.2,5.1v-5.1h-2V116H65.4z M85.2,116v-1.8H78v-4h5.7v-1.8H78v-3.1h7v-1.8h-9V116
					H85.2z M89.9,116v-9.2L97,116h1.7v-12.6h-1.9v9.1l-7.1-9.1h-1.7V116H89.9z"/>
			</g>
			<g id="Group-86-Copy" transform="translate(1000.000000, 267.000000)">
				<g id="Shape_9_">
					<g class="st14">
						<path id="path-13_2_" d="M68,0c37.6,0,68,30.4,68,68s-30.4,68-68,68S0,105.6,0,68S30.4,0,68,0z"/>
					</g>
					<g>
						<path id="path-13_1_" class="st6" d="M68,0c37.6,0,68,30.4,68,68s-30.4,68-68,68S0,105.6,0,68S30.4,0,68,0z"/>
					</g>
				</g>
				<path id="Fiat-payment_1_" class="st7" d="M50.8,96v-5.7h5.5v-1.8h-5.5v-3.3h7v-1.8h-8.9V96H50.8z M62.5,96V83.4h-2V96H62.5z
					 M67.1,96H65l5.5-12.7h1.9L77.9,96h-2.1l-1.4-3.1h-6L67.1,96z M71.4,85.8l-2.3,5.3h4.6L71.4,85.8z M77.4,85.2v-1.8h10.3v1.8
					h-4.2V96h-2V85.2H77.4z M26.7,115h-2v-12.6h5.4c1.3,0,2.3,0.3,3.1,1c0.8,0.7,1.1,1.5,1.1,2.6c0,1.1-0.4,2-1.1,2.7
					c-0.7,0.7-1.8,1-3.1,1h-3.4V115z M26.7,104.2v3.8H30c1.5,0,2.4-0.7,2.4-1.9c0-1.2-0.9-1.9-2.4-1.9H26.7z M36.7,115h-2.1
					l5.5-12.7H42l5.5,12.7h-2.1l-1.4-3.1h-6L36.7,115z M41,104.8l-2.3,5.3h4.6L41,104.8z M53.7,115h-2v-5.7l-4.9-6.9h2.3l3.6,5.1
					l3.6-5.1h2.2l-4.9,6.8V115z M62.7,115v-9.6l3.5,4.8h1.2l3.5-4.8v9.6h2v-12.6h-2l-4,5.7l-4.1-5.7h-2V115H62.7z M85.6,115v-1.8
					h-7.2v-4H84v-1.8h-5.7v-3.1h7v-1.8h-9V115H85.6z M90.2,115v-9.2l7.2,9.2h1.7v-12.6h-1.9v9.1l-7.1-9.1h-1.7V115H90.2z
					 M101.6,104.2h4.2V115h2v-10.8h4.2v-1.8h-10.3V104.2z"/>
				<path id="Combined-Shape_2_" class="st4" d="M68,67c-11,0-20-9-20-20s9-20,20-20s20,9,20,20S79,67,68,67z M70.6,44.7h-3.8
					c0.7-1.4,1.9-2.1,3.7-2.1c1,0,2,0.3,2.9,0.8v-2.7c-0.9-0.5-2-0.7-3.2-0.7c-1.6,0-3,0.4-4.1,1.3s-1.9,2-2.3,3.4H62v1.7h1.4
					c0,0.3,0,0.5,0,0.7c0,0.3,0,0.5,0,0.7H62v1.7h1.6c0.4,1.5,1.2,2.7,2.3,3.7c1.1,0.9,2.6,1.4,4.2,1.4c1.4,0,2.6-0.3,3.5-0.8v-2.8
					c-0.9,0.7-1.9,1-3.2,1c-1.8,0-3.2-0.9-3.8-2.4h3.9v-1.7h-4.3c0-0.2,0-0.4,0-0.6c0-0.2,0-0.4,0-0.7h4.3V44.7z"/>
			</g>
			<g id="Group-59" transform="translate(666.000000, 308.000000)">
				<path id="Line-4-Copy-3" class="st1" d="M332.6,30c-62.5,32.2-118,48.3-166.3,48.3S62.5,52.2,0,0"/>
			</g>
			<g id="Group-91" transform="translate(227.000000, 89.000000)">
				<path id="Combined-Shape_3_" class="st2" d="M12,24C5.4,24,0,18.6,0,12S5.4,0,12,0s12,5.4,12,12S18.6,24,12,24z M13.6,10.6h-2.3
					c0.4-0.8,1.1-1.2,2.2-1.2c0.6,0,1.2,0.2,1.7,0.5V8.2c-0.6-0.3-1.2-0.4-1.9-0.4c-1,0-1.8,0.3-2.5,0.8s-1.2,1.2-1.4,2h-1v1h0.8
					c0,0.2,0,0.3,0,0.4c0,0.2,0,0.3,0,0.4H8.4v1h1c0.2,0.9,0.7,1.6,1.4,2.2c0.7,0.6,1.5,0.8,2.5,0.8c0.9,0,1.5-0.2,2.1-0.5v-1.7
					c-0.5,0.4-1.2,0.6-1.9,0.6c-1.1,0-1.9-0.5-2.3-1.5h2.4v-1H11c0-0.1,0-0.3,0-0.4c0-0.1,0-0.3,0-0.4h2.6V10.6z"/>
				<path id="Combined-Shape-Copy_1_" class="st3" d="M31,24c-6.6,0-12-5.4-12-12S24.4,0,31,0s12,5.4,12,12S37.6,24,31,24z
					 M32.6,10.6h-2.3c0.4-0.8,1.1-1.2,2.2-1.2c0.6,0,1.2,0.2,1.7,0.5V8.2c-0.6-0.3-1.2-0.4-1.9-0.4c-1,0-1.8,0.3-2.5,0.8
					s-1.2,1.2-1.4,2h-1v1h0.8c0,0.2,0,0.3,0,0.4c0,0.2,0,0.3,0,0.4h-0.8v1h1c0.2,0.9,0.7,1.6,1.4,2.2c0.7,0.6,1.5,0.8,2.5,0.8
					c0.9,0,1.5-0.2,2.1-0.5v-1.7c-0.5,0.4-1.2,0.6-1.9,0.6c-1.1,0-1.9-0.5-2.3-1.5h2.4v-1H30c0-0.1,0-0.3,0-0.4c0-0.1,0-0.3,0-0.4
					h2.6V10.6z"/>
				<path id="Combined-Shape-Copy-2_1_" class="st4" d="M50,24c-6.6,0-12-5.4-12-12S43.4,0,50,0s12,5.4,12,12S56.6,24,50,24z
					 M51.6,10.6h-2.3c0.4-0.8,1.1-1.2,2.2-1.2c0.6,0,1.2,0.2,1.7,0.5V8.2c-0.6-0.3-1.2-0.4-1.9-0.4c-1,0-1.8,0.3-2.5,0.8
					c-0.7,0.5-1.2,1.2-1.4,2h-1v1h0.8c0,0.2,0,0.3,0,0.4c0,0.2,0,0.3,0,0.4h-0.8v1h1c0.2,0.9,0.7,1.6,1.4,2.2
					c0.7,0.6,1.5,0.8,2.5,0.8c0.9,0,1.5-0.2,2.1-0.5v-1.7c-0.5,0.4-1.2,0.6-1.9,0.6c-1.1,0-1.9-0.5-2.3-1.5h2.4v-1H49
					c0-0.1,0-0.3,0-0.4c0-0.1,0-0.3,0-0.4h2.6V10.6z"/>
			</g>
			<g id="Group-91-Copy" transform="translate(801.000000, 400.000000)">
				<path id="Combined-Shape-Copy-2_2_" class="st5" d="M50,24c-6.6,0-12-5.4-12-12S43.4,0,50,0s12,5.4,12,12S56.6,24,50,24z
					 M51.6,10.6h-2.3c0.4-0.8,1.1-1.2,2.2-1.2c0.6,0,1.2,0.2,1.7,0.5V8.2c-0.6-0.3-1.2-0.4-1.9-0.4c-1,0-1.8,0.3-2.5,0.8
					c-0.7,0.5-1.2,1.2-1.4,2h-1v1h0.8c0,0.2,0,0.3,0,0.4c0,0.2,0,0.3,0,0.4h-0.8v1h1c0.2,0.9,0.7,1.6,1.4,2.2
					c0.7,0.6,1.5,0.8,2.5,0.8c0.9,0,1.5-0.2,2.1-0.5v-1.7c-0.5,0.4-1.2,0.6-1.9,0.6c-1.1,0-1.9-0.5-2.3-1.5h2.4v-1H49
					c0-0.1,0-0.3,0-0.4c0-0.1,0-0.3,0-0.4h2.6V10.6z"/>
				<path id="Combined-Shape-Copy_2_" class="st3" d="M31,24c-6.6,0-12-5.4-12-12S24.4,0,31,0s12,5.4,12,12S37.6,24,31,24z
					 M32.6,10.6h-2.3c0.4-0.8,1.1-1.2,2.2-1.2c0.6,0,1.2,0.2,1.7,0.5V8.2c-0.6-0.3-1.2-0.4-1.9-0.4c-1,0-1.8,0.3-2.5,0.8
					s-1.2,1.2-1.4,2h-1v1h0.8c0,0.2,0,0.3,0,0.4c0,0.2,0,0.3,0,0.4h-0.8v1h1c0.2,0.9,0.7,1.6,1.4,2.2c0.7,0.6,1.5,0.8,2.5,0.8
					c0.9,0,1.5-0.2,2.1-0.5v-1.7c-0.5,0.4-1.2,0.6-1.9,0.6c-1.1,0-1.9-0.5-2.3-1.5h2.4v-1H30c0-0.1,0-0.3,0-0.4c0-0.1,0-0.3,0-0.4
					h2.6V10.6z"/>
				<path id="Combined-Shape_4_" class="st4" d="M12,24C5.4,24,0,18.6,0,12S5.4,0,12,0s12,5.4,12,12S18.6,24,12,24z M13.6,10.6h-2.3
					c0.4-0.8,1.1-1.2,2.2-1.2c0.6,0,1.2,0.2,1.7,0.5V8.2c-0.6-0.3-1.2-0.4-1.9-0.4c-1,0-1.8,0.3-2.5,0.8s-1.2,1.2-1.4,2h-1v1h0.8
					c0,0.2,0,0.3,0,0.4c0,0.2,0,0.3,0,0.4H8.4v1h1c0.2,0.9,0.7,1.6,1.4,2.2c0.7,0.6,1.5,0.8,2.5,0.8c0.9,0,1.5-0.2,2.1-0.5v-1.7
					c-0.5,0.4-1.2,0.6-1.9,0.6c-1.1,0-1.9-0.5-2.3-1.5h2.4v-1H11c0-0.1,0-0.3,0-0.4c0-0.1,0-0.3,0-0.4h2.6V10.6z"/>
			</g>
			<g id="Group-40_1_" transform="translate(926.000000, 88.000000)">
				<g id="Logo-coin-Copy-6_1_">
					<polygon id="Polygon_1_9_" class="st5" points="12,23.9 3.5,20.4 0,12 3.5,3.6 12,0.1 20.5,3.6 24,12 20.5,20.4 					"/>
					<path id="OX_9_" class="st6" d="M4.9,10.3c-0.3,0.6-0.5,1.2-0.5,1.8c0,0.5,0.1,0.9,0.3,1.3c0.2,0.5,0.5,0.9,0.8,1.2
						c0.7,0.6,1.6,1,2.8,1c1.6,0,2.7-0.5,3.4-1.6c0.3-0.5,0.5-1.2,0.5-1.8c0-1.1-0.4-1.9-1.1-2.6c-0.7-0.6-1.6-1-2.8-1
						C6.7,8.7,5.6,9.3,4.9,10.3L4.9,10.3L4.9,10.3z M9.9,10.4c0.5,0.4,0.8,1,0.8,1.8c0,0.3-0.1,0.6-0.2,0.9
						c-0.1,0.3-0.3,0.6-0.6,0.8c-0.4,0.4-1,0.6-1.6,0.6s-1.2-0.2-1.6-0.6c-0.5-0.4-0.8-1-0.8-1.8c0-0.7,0.3-1.3,0.8-1.8
						c0.4-0.4,1-0.6,1.6-0.6C8.9,9.8,9.4,10,9.9,10.4L9.9,10.4L9.9,10.4z M18.6,9.7c0.2-0.2,0.3-0.4,0.5-0.6C19.2,9,19.3,9,19.5,9
						V8.8h-2.6V9c0.2,0,0.3,0.1,0.3,0.3c0,0.1-0.1,0.2-0.2,0.4L15.8,11l-1-1.3c-0.1-0.2-0.2-0.3-0.2-0.4c0-0.1,0.1-0.2,0.3-0.3V8.8
						h-2.7l0,0.2c0.1,0,0.3,0,0.4,0.1c0.1,0.1,0.2,0.3,0.5,0.6l1.9,2.5l-2.1,2.6c-0.2,0.2-0.3,0.4-0.5,0.6c-0.1,0.1-0.2,0.1-0.4,0.1
						v0.2h2.6v-0.2c-0.2,0-0.3-0.1-0.3-0.3c0-0.1,0.1-0.2,0.2-0.4l1.3-1.6l1.3,1.6c0.1,0.2,0.2,0.3,0.2,0.3c0,0.1-0.1,0.2-0.3,0.3
						v0.2h2.7v-0.2c-0.1,0-0.3-0.1-0.4-0.2c-0.2-0.2-0.3-0.4-0.5-0.6l-2-2.6L18.6,9.7z"/>
				</g>
				<g id="Logo-coin-Copy-5_1_" transform="translate(19.000000, 0.000000)">
					<polygon id="Polygon_1_10_" class="st3" points="12,23.9 3.5,20.4 0,12 3.5,3.6 12,0.1 20.5,3.6 24,12 20.5,20.4 					"/>
					<path id="OX_10_" class="st6" d="M4.9,10.3c-0.3,0.6-0.5,1.2-0.5,1.8c0,0.5,0.1,0.9,0.3,1.3c0.2,0.5,0.5,0.9,0.8,1.2
						c0.7,0.6,1.6,1,2.8,1c1.6,0,2.7-0.5,3.4-1.6c0.3-0.5,0.5-1.2,0.5-1.8c0-1.1-0.4-1.9-1.1-2.6c-0.7-0.6-1.6-1-2.8-1
						C6.7,8.7,5.6,9.3,4.9,10.3L4.9,10.3L4.9,10.3z M9.9,10.4c0.5,0.4,0.8,1,0.8,1.8c0,0.3-0.1,0.6-0.2,0.9
						c-0.1,0.3-0.3,0.6-0.6,0.8c-0.4,0.4-1,0.6-1.6,0.6s-1.2-0.2-1.6-0.6c-0.5-0.4-0.8-1-0.8-1.8c0-0.7,0.3-1.3,0.8-1.8
						c0.4-0.4,1-0.6,1.6-0.6C8.9,9.8,9.4,10,9.9,10.4L9.9,10.4L9.9,10.4z M18.6,9.7c0.2-0.2,0.3-0.4,0.5-0.6C19.2,9,19.3,9,19.5,9
						V8.8h-2.6V9c0.2,0,0.3,0.1,0.3,0.3c0,0.1-0.1,0.2-0.2,0.4L15.8,11l-1-1.3c-0.1-0.2-0.2-0.3-0.2-0.4c0-0.1,0.1-0.2,0.3-0.3V8.8
						h-2.7l0,0.2c0.1,0,0.3,0,0.4,0.1c0.1,0.1,0.2,0.3,0.5,0.6l1.9,2.5l-2.1,2.6c-0.2,0.2-0.3,0.4-0.5,0.6c-0.1,0.1-0.2,0.1-0.4,0.1
						v0.2h2.6v-0.2c-0.2,0-0.3-0.1-0.3-0.3c0-0.1,0.1-0.2,0.2-0.4l1.3-1.6l1.3,1.6c0.1,0.2,0.2,0.3,0.2,0.3c0,0.1-0.1,0.2-0.3,0.3
						v0.2h2.7v-0.2c-0.1,0-0.3-0.1-0.4-0.2c-0.2-0.2-0.3-0.4-0.5-0.6l-2-2.6L18.6,9.7z"/>
				</g>
				<g id="Logo-coin-Copy-3_1_" transform="translate(38.000000, 0.000000)">
					<polygon id="Polygon_1_11_" class="st4" points="12,23.9 3.5,20.4 0,12 3.5,3.6 12,0.1 20.5,3.6 24,12 20.5,20.4 					"/>
					<path id="OX_11_" class="st6" d="M4.9,10.3c-0.3,0.6-0.5,1.2-0.5,1.8c0,0.5,0.1,0.9,0.3,1.3c0.2,0.5,0.5,0.9,0.8,1.2
						c0.7,0.6,1.6,1,2.8,1c1.6,0,2.7-0.5,3.4-1.6c0.3-0.5,0.5-1.2,0.5-1.8c0-1.1-0.4-1.9-1.1-2.6c-0.7-0.6-1.6-1-2.8-1
						C6.7,8.7,5.6,9.3,4.9,10.3L4.9,10.3L4.9,10.3z M9.9,10.4c0.5,0.4,0.8,1,0.8,1.8c0,0.3-0.1,0.6-0.2,0.9
						c-0.1,0.3-0.3,0.6-0.6,0.8c-0.4,0.4-1,0.6-1.6,0.6s-1.2-0.2-1.6-0.6c-0.5-0.4-0.8-1-0.8-1.8c0-0.7,0.3-1.3,0.8-1.8
						c0.4-0.4,1-0.6,1.6-0.6C8.9,9.8,9.4,10,9.9,10.4L9.9,10.4L9.9,10.4z M18.6,9.7c0.2-0.2,0.3-0.4,0.5-0.6C19.2,9,19.3,9,19.5,9
						V8.8h-2.6V9c0.2,0,0.3,0.1,0.3,0.3c0,0.1-0.1,0.2-0.2,0.4L15.8,11l-1-1.3c-0.1-0.2-0.2-0.3-0.2-0.4c0-0.1,0.1-0.2,0.3-0.3V8.8
						h-2.7l0,0.2c0.1,0,0.3,0,0.4,0.1c0.1,0.1,0.2,0.3,0.5,0.6l1.9,2.5l-2.1,2.6c-0.2,0.2-0.3,0.4-0.5,0.6c-0.1,0.1-0.2,0.1-0.4,0.1
						v0.2h2.6v-0.2c-0.2,0-0.3-0.1-0.3-0.3c0-0.1,0.1-0.2,0.2-0.4l1.3-1.6l1.3,1.6c0.1,0.2,0.2,0.3,0.2,0.3c0,0.1-0.1,0.2-0.3,0.3
						v0.2h2.7v-0.2c-0.1,0-0.3-0.1-0.4-0.2c-0.2-0.2-0.3-0.4-0.5-0.6l-2-2.6L18.6,9.7z"/>
				</g>
			</g>
			<g id="Group-40-Copy" transform="translate(352.000000, 400.000000)">
				<g id="Logo-coin-Copy-3_2_" transform="translate(38.000000, 0.000000)">
					<polygon id="Polygon_1_12_" class="st5" points="12,23.9 3.5,20.4 0,12 3.5,3.6 12,0.1 20.5,3.6 24,12 20.5,20.4 					"/>
					<path id="OX_12_" class="st6" d="M4.9,10.3c-0.3,0.6-0.5,1.2-0.5,1.8c0,0.5,0.1,0.9,0.3,1.3c0.2,0.5,0.5,0.9,0.8,1.2
						c0.7,0.6,1.6,1,2.8,1c1.6,0,2.7-0.5,3.4-1.6c0.3-0.5,0.5-1.2,0.5-1.8c0-1.1-0.4-1.9-1.1-2.6c-0.7-0.6-1.6-1-2.8-1
						C6.7,8.7,5.6,9.3,4.9,10.3L4.9,10.3L4.9,10.3z M9.9,10.4c0.5,0.4,0.8,1,0.8,1.8c0,0.3-0.1,0.6-0.2,0.9
						c-0.1,0.3-0.3,0.6-0.6,0.8c-0.4,0.4-1,0.6-1.6,0.6s-1.2-0.2-1.6-0.6c-0.5-0.4-0.8-1-0.8-1.8c0-0.7,0.3-1.3,0.8-1.8
						c0.4-0.4,1-0.6,1.6-0.6C8.9,9.8,9.4,10,9.9,10.4L9.9,10.4L9.9,10.4z M18.6,9.7c0.2-0.2,0.3-0.4,0.5-0.6C19.2,9,19.3,9,19.5,9
						V8.8h-2.6V9c0.2,0,0.3,0.1,0.3,0.3c0,0.1-0.1,0.2-0.2,0.4L15.8,11l-1-1.3c-0.1-0.2-0.2-0.3-0.2-0.4c0-0.1,0.1-0.2,0.3-0.3V8.8
						h-2.7l0,0.2c0.1,0,0.3,0,0.4,0.1c0.1,0.1,0.2,0.3,0.5,0.6l1.9,2.5l-2.1,2.6c-0.2,0.2-0.3,0.4-0.5,0.6c-0.1,0.1-0.2,0.1-0.4,0.1
						v0.2h2.6v-0.2c-0.2,0-0.3-0.1-0.3-0.3c0-0.1,0.1-0.2,0.2-0.4l1.3-1.6l1.3,1.6c0.1,0.2,0.2,0.3,0.2,0.3c0,0.1-0.1,0.2-0.3,0.3
						v0.2h2.7v-0.2c-0.1,0-0.3-0.1-0.4-0.2c-0.2-0.2-0.3-0.4-0.5-0.6l-2-2.6L18.6,9.7z"/>
				</g>
				<g id="Logo-coin-Copy-5_2_" transform="translate(19.000000, 0.000000)">
					<polygon id="Polygon_1_13_" class="st3" points="12,23.9 3.5,20.4 0,12 3.5,3.6 12,0.1 20.5,3.6 24,12 20.5,20.4 					"/>
					<path id="OX_13_" class="st6" d="M4.9,10.3c-0.3,0.6-0.5,1.2-0.5,1.8c0,0.5,0.1,0.9,0.3,1.3c0.2,0.5,0.5,0.9,0.8,1.2
						c0.7,0.6,1.6,1,2.8,1c1.6,0,2.7-0.5,3.4-1.6c0.3-0.5,0.5-1.2,0.5-1.8c0-1.1-0.4-1.9-1.1-2.6c-0.7-0.6-1.6-1-2.8-1
						C6.7,8.7,5.6,9.3,4.9,10.3L4.9,10.3L4.9,10.3z M9.9,10.4c0.5,0.4,0.8,1,0.8,1.8c0,0.3-0.1,0.6-0.2,0.9
						c-0.1,0.3-0.3,0.6-0.6,0.8c-0.4,0.4-1,0.6-1.6,0.6s-1.2-0.2-1.6-0.6c-0.5-0.4-0.8-1-0.8-1.8c0-0.7,0.3-1.3,0.8-1.8
						c0.4-0.4,1-0.6,1.6-0.6C8.9,9.8,9.4,10,9.9,10.4L9.9,10.4L9.9,10.4z M18.6,9.7c0.2-0.2,0.3-0.4,0.5-0.6C19.2,9,19.3,9,19.5,9
						V8.8h-2.6V9c0.2,0,0.3,0.1,0.3,0.3c0,0.1-0.1,0.2-0.2,0.4L15.8,11l-1-1.3c-0.1-0.2-0.2-0.3-0.2-0.4c0-0.1,0.1-0.2,0.3-0.3V8.8
						h-2.7l0,0.2c0.1,0,0.3,0,0.4,0.1c0.1,0.1,0.2,0.3,0.5,0.6l1.9,2.5l-2.1,2.6c-0.2,0.2-0.3,0.4-0.5,0.6c-0.1,0.1-0.2,0.1-0.4,0.1
						v0.2h2.6v-0.2c-0.2,0-0.3-0.1-0.3-0.3c0-0.1,0.1-0.2,0.2-0.4l1.3-1.6l1.3,1.6c0.1,0.2,0.2,0.3,0.2,0.3c0,0.1-0.1,0.2-0.3,0.3
						v0.2h2.7v-0.2c-0.1,0-0.3-0.1-0.4-0.2c-0.2-0.2-0.3-0.4-0.5-0.6l-2-2.6L18.6,9.7z"/>
				</g>
				<g id="Logo-coin-Copy-6_2_">
					<polygon id="Polygon_1_14_" class="st4" points="12,23.9 3.5,20.4 0,12 3.5,3.6 12,0.1 20.5,3.6 24,12 20.5,20.4 					"/>
					<path id="OX_14_" class="st6" d="M4.9,10.3c-0.3,0.6-0.5,1.2-0.5,1.8c0,0.5,0.1,0.9,0.3,1.3c0.2,0.5,0.5,0.9,0.8,1.2
						c0.7,0.6,1.6,1,2.8,1c1.6,0,2.7-0.5,3.4-1.6c0.3-0.5,0.5-1.2,0.5-1.8c0-1.1-0.4-1.9-1.1-2.6c-0.7-0.6-1.6-1-2.8-1
						C6.7,8.7,5.6,9.3,4.9,10.3L4.9,10.3L4.9,10.3z M9.9,10.4c0.5,0.4,0.8,1,0.8,1.8c0,0.3-0.1,0.6-0.2,0.9
						c-0.1,0.3-0.3,0.6-0.6,0.8c-0.4,0.4-1,0.6-1.6,0.6s-1.2-0.2-1.6-0.6c-0.5-0.4-0.8-1-0.8-1.8c0-0.7,0.3-1.3,0.8-1.8
						c0.4-0.4,1-0.6,1.6-0.6C8.9,9.8,9.4,10,9.9,10.4L9.9,10.4L9.9,10.4z M18.6,9.7c0.2-0.2,0.3-0.4,0.5-0.6C19.2,9,19.3,9,19.5,9
						V8.8h-2.6V9c0.2,0,0.3,0.1,0.3,0.3c0,0.1-0.1,0.2-0.2,0.4L15.8,11l-1-1.3c-0.1-0.2-0.2-0.3-0.2-0.4c0-0.1,0.1-0.2,0.3-0.3V8.8
						h-2.7l0,0.2c0.1,0,0.3,0,0.4,0.1c0.1,0.1,0.2,0.3,0.5,0.6l1.9,2.5l-2.1,2.6c-0.2,0.2-0.3,0.4-0.5,0.6c-0.1,0.1-0.2,0.1-0.4,0.1
						v0.2h2.6v-0.2c-0.2,0-0.3-0.1-0.3-0.3c0-0.1,0.1-0.2,0.2-0.4l1.3-1.6l1.3,1.6c0.1,0.2,0.2,0.3,0.2,0.3c0,0.1-0.1,0.2-0.3,0.3
						v0.2h2.7v-0.2c-0.1,0-0.3-0.1-0.4-0.2c-0.2-0.2-0.3-0.4-0.5-0.6l-2-2.6L18.6,9.7z"/>
				</g>
			</g>
			<path id="Polygon" class="st15" d="M419.7,172.5l-9.2,0.8l0,0c-1.1,0.1-2.1-0.7-2.2-1.8c0-0.3,0-0.7,0.2-1l3.9-8.4l0,0
				c0.5-1,1.7-1.4,2.7-1c0.3,0.1,0.6,0.4,0.8,0.7l5.3,7.6l0,0c0.6,0.9,0.4,2.2-0.5,2.8C420.3,172.4,420,172.5,419.7,172.5z"/>
			<path id="Polygon-Copy-2" class="st15" d="M794,169.2l5.2-7.7l0,0c0.6-0.9,1.9-1.2,2.8-0.5c0.3,0.2,0.5,0.5,0.7,0.8l4,8.3l0,0
				c0.5,1,0.1,2.2-0.9,2.7c-0.3,0.2-0.7,0.2-1,0.2l-9.2-0.6l0,0c-1.1-0.1-1.9-1-1.9-2.1C793.7,169.8,793.8,169.5,794,169.2z"/>
			<path id="Polygon-Copy" class="st15" d="M216.9,336l9.2-0.8l0,0c1.1-0.1,2.1,0.7,2.2,1.8c0,0.3,0,0.7-0.2,1l-3.9,8.4l0,0
				c-0.5,1-1.7,1.4-2.7,1c-0.3-0.1-0.6-0.4-0.8-0.7l-5.3-7.6l0,0c-0.6-0.9-0.4-2.2,0.5-2.8C216.2,336.2,216.5,336.1,216.9,336z"/>
			<path id="Polygon-Copy-3" class="st15" d="M999.6,338.8l-4.9,7.8l0,0c-0.6,0.9-1.8,1.2-2.8,0.6c-0.3-0.2-0.5-0.4-0.7-0.8
				l-4.3-8.2l0,0c-0.5-1-0.1-2.2,0.8-2.7c0.3-0.2,0.7-0.2,1-0.2l9.2,0.3l0,0c1.1,0,2,1,1.9,2.1C999.9,338.2,999.8,338.5,999.6,338.8
				z"/>
		</g>
	</g>
</g>
</svg>
