<svg xmlns="http://www.w3.org/2000/svg" width="169" height="45" viewBox="0 0 169 45">
    <g fill="#FFF" fill-rule="evenodd">
        <path d="M19.237 7.68s.365-.244.776-.535c.412-.29 1.241-.36 1.716.102.475.463 3.599 1.562 4.186 1.595 1.23.068 1.29.643 2.096 1.511.81.874 2.576 1.224 3.26 1.349 1.397.254 1.667.38 1.804 1.301.171 1.158-.535 2.881-1.293 3.196-.518.214-2.953.65-3.962 1.48-1.766 1.453-5.2 2.637-5.2 2.637s1.32-.155 3.36-1.02a73.382 73.382 0 0 1-1.986 12.2s1.048-2.06 2.378-9.377c.991 1.926 2.683 4.52 4.494 4.813 1.823.295 3.467.593 4.242.87.775.275 2.911-.307 4.263 7.748.22 1.313 1.733 4.31 3.03 5.861.798.956 1.026 3.097 1.026 3.097H39.67a7.466 7.466 0 0 1-.114-1.625c.105-1.543-2.456-2.854-4.182-4.791-1.219-1.37-5.877-1.999-7.583-2.297-1.865-.326-4.829.01-4.829.01s-1.63 3.02-2.096 5.538c-.053.286.158.358.41 1.028.336.893.2 2.137.2 2.137H16.75s-.065-1.373.38-2.285c.567-1.16 1.473-6.2.101-6.494-3.223-.69-6.079-.118-7.747 1.267-2.517 2.087-3.958 4.353-3.813 4.945.146.592-.526 2.567-.526 2.567H.428s.353-2.434 1.56-3.027c.604-.297 3.133-6.531 4.164-9.926 2.1-6.92 3.725-10.63 6.87-14.008 1.548-1.665 2.453-3.973 2.453-3.973a3.907 3.907 0 0 0-1.676-.1c-1.284.153-2.49-.237-3.566-1.3-1.066-1.055-.826-4.212-.826-4.212a27.027 27.027 0 0 0 3.717 1.97c1.612.651 3.55.657 3.55.657s-3.97-1.414-4.32-2.782c-.234-.91.264-2.105 1.716-2.466C21.037 3.609 24.077.183 24.44.209c.465.034-1.254 2.596-4.484 4.818-2.164 1.488-3.396 1.55-3.092 2 .3.444 2.373.652 2.373.652zm8.547 1.685s.014.36.485.762c.273.21.583.365.914.458a24.184 24.184 0 0 0 3.107-3.654c.603-.895 1-1.787.915-2.011-.097-.254-.244.608-2.18 2.298a13.182 13.182 0 0 1-3.241 2.147z"/>
        <path d="M35.03 38.663s.035-.836-2.332-1.585c-2.178-.688-6.819-2.202-6.819-2.202s2.053 3.6 3.821 4.695c1.485.919 2.316 2.61 1.911 3.229-.444.68-.233 1.709-.233 1.709h3.383s.127-1.049-.717-3.105c-.617-1.505.985-2.742.985-2.742zM31.942 27.11s2.855.387 4.607.399c3.691.024 3.752-2.453-.61-1.587-4.847.96-3.884-3.862.945-2.352 3.825 1.197 4.535-.463 4.535-.463s-.024-.411.586-.673c.61-.26 1.64-.56 1.64-.56s-.424 1.59-1.479 1.796c-1.705.333-2.131 1.282-5.425.31-4.06-1.2-4.842 2.184-.694 1.463 5.246-.911 5.214 2.357 1.412 2.634-2.963.217-2.894 1.318-2.894 1.318l-2.623-2.286zM55.868 35.518v5.296H68.3c.283 0 .5-.066.652-.198.15-.132.273-.368.368-.708h.453v4.998h-.453c-.095-.34-.217-.576-.368-.708S68.583 44 68.3 44H50.742v-.453c.34-.095.576-.217.708-.368s.198-.373.198-.666V26.158c0-.292-.066-.514-.198-.665-.132-.151-.368-.274-.708-.368v-.454H67.96c.284 0 .5-.068.652-.205.15-.137.274-.375.368-.715h.453v4.999h-.453c-.094-.33-.217-.562-.368-.694-.151-.132-.368-.199-.652-.199H55.868v4.588h7.844c.284 0 .5-.066.652-.198.15-.132.274-.368.368-.708h.453v4.885h-.453c-.094-.33-.217-.564-.368-.7-.151-.137-.368-.206-.652-.206h-7.844zm37.575-9.36v10.833c0 2.048-.377 3.582-1.132 4.602-1.36 1.831-4.168 2.747-8.426 2.747-3.077 0-5.433-.496-7.066-1.487-.953-.576-1.614-1.36-1.982-2.35-.359-.982-.538-2.153-.538-3.512V26.158c0-.292-.066-.514-.198-.665-.133-.151-.369-.274-.708-.368v-.454h6.046v.454c-.34.084-.578.205-.715.36-.137.156-.205.38-.205.673v9.643c0 1.114.06 1.938.184 2.471.122.534.354.98.693 1.338.907.963 2.455 1.445 4.645 1.445 2.2 0 3.752-.482 4.659-1.445.33-.358.557-.804.68-1.338.122-.533.183-1.357.183-2.47v-9.644c0-.292-.066-.514-.198-.665-.132-.151-.368-.274-.708-.368v-.454h5.693v.454c-.34.094-.576.217-.708.368-.133.15-.199.373-.199.665zm10.12 9.955v6.414c0 .284.068.503.205.659.137.156.37.276.7.36V44h-6.031v-.453c.34-.095.575-.217.708-.368.132-.151.198-.368.198-.652V26.158c0-.292-.066-.514-.198-.665-.133-.151-.369-.274-.708-.368v-.454h12.092c1.473 0 2.641.085 3.505.255.864.17 1.617.468 2.258.892a4.494 4.494 0 0 1 1.671 1.997c.35.812.524 1.68.524 2.605 0 3.153-1.75 4.999-5.253 5.537l3.752 5.338c.661.935 1.145 1.537 1.452 1.806.307.269.682.418 1.125.446V44h-6.995v-.453c.482-.076.723-.246.723-.51 0-.17-.222-.58-.666-1.232l-3.908-5.692h-5.154zm0-3.186h6.513c.963 0 1.643-.029 2.04-.085a3.22 3.22 0 0 0 1.09-.354c.717-.387 1.076-1.086 1.076-2.096s-.359-1.709-1.076-2.096a3.06 3.06 0 0 0-1.084-.36c-.382-.053-1.064-.079-2.046-.079h-6.513v5.07zm29.575-8.595c3.37 0 6.041.91 8.014 2.732 2.087 1.907 3.13 4.371 3.13 7.392 0 1.85-.5 3.578-1.501 5.183-1.954 3.134-5.16 4.7-9.615 4.7-3.342 0-6-.91-7.972-2.732a9.518 9.518 0 0 1-2.407-3.498 10.051 10.051 0 0 1-.723-3.78c0-1.936.496-3.706 1.487-5.31 1.898-3.068 5.093-4.63 9.587-4.687zm.014 3.27c-1.841 0-3.375.548-4.602 1.643-1.454 1.293-2.18 2.988-2.18 5.084 0 2.095.726 3.79 2.18 5.083 1.227 1.095 2.77 1.643 4.63 1.643 1.86 0 3.399-.548 4.616-1.643a6.447 6.447 0 0 0 1.671-2.393c.34-.84.51-1.709.51-2.605 0-2.19-.727-3.913-2.18-5.169-1.237-1.076-2.785-1.624-4.645-1.642zm26.786 6.33l5.848 7.576c.642.83 1.102 1.36 1.38 1.586.279.226.663.377 1.154.453V44h-7.66v-.453c.566-.113.85-.359.85-.736 0-.199-.17-.52-.51-.963l-3.725-4.786-3.54 4.63c-.387.5-.58.854-.58 1.062 0 .472.316.736.949.793V44h-7.42v-.453c.434-.047.771-.17 1.012-.368.24-.199.725-.755 1.451-1.671l5.834-7.363-5.366-7.024c-.699-.916-1.164-1.465-1.395-1.65-.231-.184-.602-.3-1.112-.346l-.014-.454h7.76v.454c-.566.15-.85.438-.85.863 0 .227.203.604.61 1.133l3.03 3.894 3.072-3.894c.453-.576.68-.982.68-1.218 0-.415-.326-.675-.977-.778v-.454h7.547v.454c-.453.047-.776.148-.97.304-.193.156-.691.72-1.494 1.692l-5.565 6.811z"/>
    </g>
</svg>
