<svg xmlns="http://www.w3.org/2000/svg" width="24" height="24" viewBox="0 0 24 24">
    <path fill="#18FFFF" fill-rule="evenodd" d="M12 24C5.373 24 0 18.627 0 12S5.373 0 12 0s12 5.373 12 12-5.373 12-12 12zM5.896 8.652v7.237a.781.781 0 0 1-.216.704L4 18.697v.27h4.768v-.27l-1.68-2.104a.77.77 0 0 1-.232-.704V9.635l4.184 9.332h.48l3.592-9.332v7.441c0 .197 0 .238-.128.36l-1.288 1.286V19h6.272v-.278l-1.248-1.253a.393.393 0 0 1-.136-.368V7.899a.393.393 0 0 1 .136-.368L20 6.278V6h-4.424l-3.152 8.047L8.84 6H4.2v.278L5.696 8.12a.622.622 0 0 1 .2.532z"/>
</svg>
