<svg xmlns="http://www.w3.org/2000/svg" width="512" height="626" viewBox="0 0 512 626">
    <defs>
        <filter id="a" width="176.1%" height="176.3%" x="-38%" y="-29.7%" filterUnits="objectBoundingBox">
            <feOffset dy="24" in="SourceAlpha" result="shadowOffsetOuter1"/>
            <feGaussianBlur in="shadowOffsetOuter1" result="shadowBlurOuter1" stdDeviation="32"/>
            <feColorMatrix in="shadowBlurOuter1" result="shadowMatrixOuter1" values="0 0 0 0 0 0 0 0 0 0 0 0 0 0 0 0 0 0 0.12 0"/>
            <feMerge>
                <feMergeNode in="shadowMatrixOuter1"/>
                <feMergeNode in="SourceGraphic"/>
            </feMerge>
        </filter>
        <linearGradient id="b" x1="19.82%" x2="81.703%" y1="81.508%" y2="16.901%">
            <stop offset="0%" stop-color="#0C0B3A"/>
            <stop offset="100%" stop-color="#4CD0FB"/>
        </linearGradient>
        <linearGradient id="c" x1="50%" x2="50%" y1="97.956%" y2="1.87%">
            <stop offset="0%" stop-color="#AFFFFF"/>
            <stop offset="100%" stop-color="#DAFFFF"/>
        </linearGradient>
        <linearGradient id="d" x1="49.997%" x2="49.997%" y1="99.635%" y2=".176%">
            <stop offset="0%" stop-color="#AFFFFF"/>
            <stop offset="100%" stop-color="#DAFFFF"/>
        </linearGradient>
    </defs>
    <g fill="none" fill-rule="nonzero">
        <path fill="#EEFBFE" d="M256 0L0 113.818v170.727C0 442.468 109.227 590.147 256 626c146.773-35.853 256-183.532 256-341.455V113.818L256 0z"/>
        <g filter="url(#a)" transform="translate(110 126)">
            <path fill="url(#b)" d="M141.892 282.547L41.9 241.177.483 141.305 41.9 41.435 141.892.065l99.995 41.368 41.418 99.871-41.418 99.872z"/>
            <path fill="url(#c)" d="M57.795 121.433c-4.09 6.612-6.134 13.903-6.134 21.873 0 5.444.993 10.636 2.98 15.572 2.26 5.6 5.57 10.402 9.934 14.406 8.14 7.505 19.108 11.257 32.898 11.257 18.387 0 31.612-6.454 39.676-19.365 4.13-6.611 6.195-13.724 6.195-21.347 0-12.442-4.306-22.592-12.915-30.446-8.141-7.503-19.166-11.257-33.073-11.257-18.544.238-31.731 6.671-39.56 19.307zm58.793.986c6.002 5.166 9.002 12.254 9.002 21.265 0 3.69-.701 7.265-2.103 10.722-1.599 3.885-3.898 7.166-6.898 9.847-5.027 4.506-11.38 6.758-19.057 6.758-7.678 0-14.05-2.252-19.115-6.758-6.003-5.321-9.001-12.295-9.001-20.917 0-8.623 2.998-15.596 9-20.918 5.066-4.506 11.399-6.758 19-6.758 7.674.077 14.065 2.332 19.172 6.76z"/>
            <path fill="url(#d)" d="M219.504 113.618c3.306-4.004 5.36-6.326 6.16-6.969.796-.642 2.13-1.058 4-1.255v-1.867H198.54v1.867c2.687.427 4.03 1.497 4.03 3.209 0 .972-.934 2.645-2.804 5.015l-12.812 15.916-12.38-15.916c-1.674-2.176-2.506-3.732-2.506-4.664 0-1.75 1.165-2.936 3.5-3.56v-1.865h-31.983l.06 1.866c2.102.197 3.632.67 4.585 1.429.953.76 2.869 3.026 5.752 6.794l22.434 29.003-24.36 30.26c-3 3.77-4.995 6.065-5.986 6.883-.993.815-2.387 1.321-4.178 1.517v1.866h30.633v-1.866c-2.613-.233-3.915-1.323-3.915-3.268 0-.855.798-2.313 2.396-4.374l15.024-18.591 14.877 19.233c1.403 1.828 2.104 3.15 2.104 3.965 0 1.556-1.169 2.568-3.507 3.034v1.867h31.62v-1.867c-2.024-.31-3.61-.935-4.76-1.866-1.15-.932-3.046-3.11-5.692-6.532L196.61 141.95l22.894-28.332z"/>
        </g>
        <g fill="#142452">
            <path d="M143.712 475.817c.74 0 1.309.179 1.704.536.395.357.717.968.963 1.832h1.186V465.42h-1.186c-.248.89-.567 1.505-.963 1.852-.396.343-.964.516-1.704.516h-20.52v-11.986h31.632c.74 0 1.308.176 1.704.527.394.351.716.963.963 1.842h1.186v-13.06h-1.186c-.249.874-.568 1.488-.963 1.84-.396.351-.964.526-1.704.526h-45.041v1.183c.889.246 1.505.566 1.852.963.345.395.518.974.518 1.74v42.73c0 .762-.173 1.344-.518 1.736-.345.395-.963.717-1.852.964v1.183h45.928c.74 0 1.308.172 1.704.52.395.344.717.96.963 1.849h1.187v-13.061h-1.187c-.246.888-.568 1.505-.963 1.85-.396.345-.963.518-1.704.518h-32.52v-13.836h20.521zM219.383 449.624c.345-.395.963-.715 1.852-.962v-1.185h-14.89v1.185c.889.247 1.506.565 1.853.962.346.394.519.974.519 1.739v25.193c0 2.91-.16 5.062-.483 6.454-.32 1.395-.913 2.562-1.776 3.495-2.37 2.516-6.433 3.775-12.186 3.775-5.73 0-9.777-1.26-12.15-3.775-.889-.936-1.495-2.1-1.815-3.495-.321-1.392-.482-3.543-.482-6.454v-25.193c0-.765.176-1.352.53-1.758.353-.407.965-.722 1.841-.943v-1.185h-15.778v1.185c.889.247 1.506.565 1.853.962.345.394.518.974.518 1.739v28.3c0 3.553.468 6.611 1.407 9.174.963 2.591 2.691 4.64 5.186 6.144 4.27 2.589 10.432 3.884 18.483 3.884 11.137 0 18.482-2.391 22.038-7.177 1.975-2.664 2.964-6.671 2.964-12.022v-28.302c-.002-.763.17-1.346.516-1.74zM256.217 477.37l10.241 14.869c1.16 1.702 1.736 2.775 1.736 3.221 0 .693-.628 1.134-1.885 1.331v1.183h18.267v-1.183c-1.16-.072-2.141-.462-2.945-1.163-.802-.706-2.068-2.276-3.797-4.718l-9.816-13.949c9.162-1.404 13.743-6.224 13.743-14.465 0-2.416-.458-4.687-1.373-6.806-.96-2.195-2.418-3.934-4.367-5.215-1.679-1.11-3.647-1.889-5.907-2.333-2.26-.442-5.313-.665-9.166-.665h-31.636v1.185c.889.247 1.506.565 1.851.962.345.394.52.974.52 1.739v42.766c0 .738-.173 1.306-.52 1.7-.346.394-.962.716-1.851.962v1.183h15.778v-1.183c-.866-.22-1.475-.536-1.834-.943-.359-.407-.537-.98-.537-1.718v-16.76h13.498zm-13.498-21.567h17.04c2.568 0 4.353.068 5.353.205a7.953 7.953 0 0 1 2.831.943c1.878 1.01 2.818 2.835 2.818 5.474 0 2.638-.94 4.466-2.818 5.475a8.4 8.4 0 0 1-2.85.927c-1.036.147-2.817.22-5.335.22h-17.04v-13.244zM292.395 458.837c-2.595 4.191-3.892 8.816-3.892 13.87 0 3.455.629 6.748 1.889 9.878 1.433 3.552 3.534 6.6 6.304 9.138 5.161 4.758 12.116 7.14 20.863 7.14 11.665 0 20.054-4.092 25.167-12.282 2.62-4.19 3.927-8.704 3.927-13.537 0-7.89-2.728-14.33-8.188-19.312-5.166-4.759-12.158-7.141-20.978-7.141-11.763.147-20.127 4.23-25.092 12.246zm37.29.623c3.806 3.277 5.711 7.774 5.711 13.49 0 2.34-.445 4.607-1.336 6.8-1.015 2.463-2.474 4.548-4.375 6.246-3.189 2.859-7.218 4.29-12.088 4.29-4.87 0-8.914-1.432-12.126-4.29-3.806-3.374-5.707-7.797-5.707-13.266 0-5.47 1.9-9.894 5.707-13.27 3.212-2.858 7.23-4.285 12.05-4.285 4.87.049 8.924 1.477 12.164 4.285zM396.286 453.877c2.098-2.54 3.403-4.014 3.91-4.42.505-.409 1.352-.674 2.538-.796v-1.185h-19.743v1.185c1.704.272 2.556.949 2.556 2.032 0 .618-.593 1.679-1.777 3.183l-8.126 10.093-7.852-10.093c-1.06-1.382-1.59-2.367-1.59-2.959 0-1.11.74-1.861 2.22-2.258v-1.183h-20.285l.035 1.183c1.337.124 2.303.428 2.909.906.606.482 1.821 1.917 3.647 4.309l14.23 18.395-15.453 19.191c-1.9 2.393-3.165 3.848-3.796 4.365-.629.518-1.511.839-2.647.963v1.183h19.428v-1.183c-1.659-.148-2.486-.839-2.486-2.072 0-.542.506-1.467 1.52-2.775l9.53-11.791 9.433 12.2c.892 1.16 1.336 1.996 1.336 2.514 0 .986-.743 1.627-2.224 1.924v1.183h20.058v-1.183c-1.287-.198-2.294-.592-3.02-1.182-.73-.591-1.934-1.973-3.614-4.146l-15.258-19.616 14.521-17.967z"/>
        </g>
    </g>
</svg>
