<svg xmlns="http://www.w3.org/2000/svg" width="168" height="112" viewBox="0 0 168 112">
    <g fill="none" fill-rule="nonzero">
        <g fill="#303F9F">
            <path d="M80.005 57.039c.873 0 1.565-.328 2.078-.973.521-.645.777-1.428.777-2.337 0-.91-.256-1.692-.777-2.337-.513-.646-1.205-.974-2.078-.974-1.177 0-2.097.7-2.543 1.692a3.93 3.93 0 0 0-.322 1.619c0 1.172.437 2.21 1.318 2.836.447.318.959.474 1.547.474zm-1.09-1.829c-.275-.409-.408-.9-.408-1.482s.133-1.073.408-1.473c.274-.409.636-.609 1.091-.609.455 0 .816.2 1.082.609.274.4.407.892.407 1.473 0 .582-.133 1.073-.407 1.482-.266.4-.627.6-1.082.6-.455 0-.817-.2-1.091-.6zM88.53 56.695v-6.366h-1.186l-1.557.801v1.282l1.404-.683v4.966h1.339zM72.103 57.255c.873 0 1.565-.328 2.078-.973.521-.646.777-1.428.777-2.337 0-.91-.256-1.692-.777-2.337-.513-.646-1.205-.974-2.078-.974-1.177 0-2.097.7-2.543 1.691a3.923 3.923 0 0 0-.322 1.62c0 1.172.437 2.209 1.318 2.836.446.319.958.474 1.547.474zm-1.092-1.828c-.274-.409-.407-.9-.407-1.482 0-.583.133-1.074.407-1.474.275-.409.636-.609 1.092-.609.455 0 .815.2 1.081.609.275.4.408.892.408 1.474s-.133 1.073-.408 1.482c-.266.4-.626.6-1.081.6-.456 0-.816-.2-1.092-.6zM65.504 56.669v-6.365h-1.187l-1.556.8v1.283l1.404-.683v4.965zM57.093 57.013c.873 0 1.565-.327 2.078-.972.521-.646.777-1.428.777-2.337 0-.91-.256-1.692-.777-2.337-.513-.646-1.205-.974-2.078-.974-1.177 0-2.097.7-2.543 1.692a3.93 3.93 0 0 0-.322 1.619c0 1.172.436 2.209 1.318 2.836.447.319.958.473 1.547.473zm-1.091-1.827c-.275-.409-.408-.9-.408-1.482 0-.583.133-1.074.408-1.473.274-.41.636-.609 1.091-.609.455 0 .815.199 1.081.609.275.399.408.891.408 1.473 0 .582-.133 1.073-.408 1.482-.266.4-.626.6-1.081.6-.455 0-.816-.2-1.091-.6zM51.728 59.075v-6.366h-1.186l-1.557.8v1.282l1.404-.681v4.965zM98.108 56.021v-6.367h-1.187l-1.556.8v1.283l1.404-.683v4.966h1.339zM49.308 50.546c.873 0 1.565-.328 2.078-.974.521-.646.778-1.429.778-2.338 0-.91-.257-1.692-.778-2.338-.513-.646-1.205-.974-2.078-.974-1.176 0-2.097.7-2.543 1.691a3.939 3.939 0 0 0-.322 1.62c0 1.173.437 2.21 1.319 2.838.446.32.958.475 1.546.475zm-1.091-1.829c-.275-.409-.408-.9-.408-1.482 0-.583.133-1.073.408-1.474.275-.41.636-.609 1.091-.609.456 0 .816.199 1.082.609.275.4.408.891.408 1.474 0 .582-.133 1.073-.408 1.482-.266.4-.626.601-1.082.601-.455 0-.815-.2-1.091-.601zM40.802 50.347v-6.368h-1.187l-1.555.801v1.283l1.404-.683v4.967h1.338zM65.049 34.832v-6.367h-1.186l-1.557.801v1.282l1.404-.683v4.967zM55.267 31.421c.873 0 1.565-.327 2.078-.973.521-.646.778-1.429.778-2.338 0-.91-.257-1.692-.778-2.338-.513-.646-1.205-.974-2.078-.974-1.177 0-2.097.7-2.543 1.692a3.928 3.928 0 0 0-.322 1.619c0 1.173.437 2.21 1.318 2.838.447.32.959.474 1.547.474zm-1.091-1.828c-.275-.409-.408-.9-.408-1.482s.133-1.073.408-1.474c.274-.41.636-.61 1.091-.61.455 0 .816.2 1.082.61.274.4.407.892.407 1.474s-.133 1.073-.407 1.482c-.266.4-.627.601-1.082.601-.455 0-.816-.2-1.091-.601zM53.5 20.376c.873 0 1.565-.328 2.077-.974.522-.646.778-1.429.778-2.338 0-.91-.256-1.692-.778-2.338-.512-.646-1.204-.974-2.077-.974-1.177 0-2.098.7-2.543 1.692a3.919 3.919 0 0 0-.323 1.619c0 1.174.437 2.21 1.319 2.838.447.32.959.475 1.547.475zm-1.091-1.829c-.274-.409-.407-.9-.407-1.482s.133-1.073.407-1.474c.275-.41.636-.609 1.092-.609.455 0 .815.199 1.081.609.275.4.408.892.408 1.474s-.133 1.073-.408 1.482c-.266.4-.626.601-1.081.601-.457 0-.817-.2-1.092-.601zM70.017 32.234v-6.367H68.83l-1.556.8v1.283l1.404-.683v4.967zM71.988 66.371c.873 0 1.566-.327 2.078-.974.522-.646.778-1.428.778-2.338 0-.91-.256-1.692-.778-2.338-.512-.646-1.205-.974-2.078-.974-1.176 0-2.097.7-2.542 1.692a3.919 3.919 0 0 0-.323 1.619c0 1.174.437 2.211 1.319 2.838.446.32.958.475 1.546.475zm-1.091-1.828c-.275-.41-.408-.901-.408-1.483 0-.582.133-1.073.408-1.474.275-.409.636-.609 1.091-.609.456 0 .816.2 1.082.609.275.4.408.892.408 1.474s-.133 1.073-.408 1.483c-.266.399-.626.6-1.082.6-.455 0-.816-.201-1.091-.6zM79.274 65.786v-6.368h-1.187l-1.556.801v1.282l1.404-.682v4.967zM65.727 25.524v-6.368H64.54l-1.556.801v1.282l1.404-.683v4.968zM73.006 21.176c.872 0 1.565-.327 2.077-.974.522-.646.778-1.428.778-2.338 0-.91-.256-1.691-.778-2.338-.512-.646-1.205-.974-2.077-.974-1.177 0-2.098.701-2.543 1.692a3.915 3.915 0 0 0-.323 1.619c0 1.174.437 2.211 1.319 2.838.447.32.958.475 1.547.475zm-1.091-1.829c-.274-.409-.407-.9-.407-1.482s.133-1.073.407-1.474c.275-.409.636-.609 1.092-.609.455 0 .815.2 1.081.609.275.4.408.892.408 1.474s-.133 1.073-.408 1.482c-.266.4-.626.601-1.081.601-.457 0-.817-.2-1.092-.601zM75.601 29.186c.873 0 1.565-.327 2.078-.974.521-.646.777-1.428.777-2.338 0-.91-.256-1.692-.777-2.338-.513-.646-1.205-.974-2.078-.974-1.177 0-2.097.7-2.543 1.692a3.915 3.915 0 0 0-.322 1.619c0 1.174.436 2.211 1.318 2.838.446.32.958.475 1.547.475zm-1.092-1.829c-.274-.409-.407-.9-.407-1.482s.133-1.073.407-1.474c.275-.409.636-.609 1.092-.609.455 0 .815.2 1.081.609.275.4.408.892.408 1.474s-.133 1.073-.408 1.482c-.266.4-.626.601-1.081.601-.456 0-.816-.201-1.092-.601zM83.675 28.072v-6.368h-1.186l-1.556.801v1.283l1.404-.683v4.967zM88.021 19.565c.873 0 1.565-.328 2.078-.974.521-.646.778-1.428.778-2.338 0-.91-.257-1.692-.778-2.338-.513-.646-1.205-.974-2.078-.974-1.177 0-2.097.7-2.542 1.692a3.919 3.919 0 0 0-.323 1.619c0 1.174.437 2.211 1.319 2.838.446.32.959.475 1.546.475zm-1.09-1.828c-.275-.41-.408-.901-.408-1.483 0-.582.133-1.073.408-1.474.275-.409.636-.609 1.091-.609.456 0 .816.2 1.082.609.275.4.408.892.408 1.474s-.133 1.073-.408 1.483c-.266.399-.626.6-1.082.6-.456-.001-.816-.201-1.091-.6zM96.885 19.845v-6.367h-1.187l-1.556.801v1.282l1.404-.683v4.967h1.339zM90.111 28.313v-6.368h-1.187l-1.556.801v1.283l1.404-.683v4.967zM96.035 29.09c.873 0 1.565-.328 2.078-.974.521-.646.778-1.429.778-2.338 0-.91-.257-1.692-.778-2.338-.513-.646-1.205-.974-2.078-.974-1.177 0-2.097.7-2.542 1.692a3.912 3.912 0 0 0-.323 1.619c0 1.173.437 2.211 1.319 2.838.446.32.958.475 1.546.475zm-1.091-1.829c-.275-.409-.408-.9-.408-1.482s.133-1.073.408-1.474c.275-.409.636-.61 1.091-.61.456 0 .816.201 1.082.61.275.4.408.892.408 1.474s-.133 1.073-.408 1.482c-.266.4-.626.601-1.082.601-.455 0-.815-.2-1.091-.601zM61.72 84.314c.873 0 1.565-.328 2.078-.974.521-.646.777-1.428.777-2.338 0-.91-.256-1.692-.777-2.338-.513-.646-1.205-.974-2.078-.974-1.177 0-2.097.7-2.543 1.692a3.915 3.915 0 0 0-.322 1.619c0 1.174.437 2.211 1.318 2.838.447.32.958.475 1.547.475zm-1.092-1.829c-.274-.409-.407-.9-.407-1.482s.133-1.073.407-1.474c.275-.409.636-.609 1.092-.609.455 0 .815.2 1.081.609.275.4.408.892.408 1.474s-.133 1.073-.408 1.482c-.266.4-.626.601-1.081.601-.456 0-.816-.2-1.092-.601zM57.656 76.041c.873 0 1.565-.327 2.078-.973.521-.646.778-1.429.778-2.339 0-.909-.257-1.691-.778-2.338-.513-.646-1.205-.973-2.078-.973-1.177 0-2.097.7-2.543 1.691a3.934 3.934 0 0 0-.322 1.619c0 1.174.437 2.211 1.318 2.839.446.32.959.474 1.547.474zm-1.091-1.828c-.275-.409-.408-.9-.408-1.483 0-.582.133-1.073.408-1.473.275-.41.636-.61 1.091-.61.455 0 .816.2 1.082.61.275.399.408.891.408 1.473 0 .583-.133 1.074-.408 1.483-.266.4-.627.601-1.082.601-.455 0-.816-.201-1.091-.601zM45.094 66.051v-6.368h-1.187l-1.556.801v1.282l1.404-.682v4.967zM58.501 66.219v-6.367h-1.186l-1.557.8v1.283l1.404-.683v4.967h1.339zM63.749 66.13c.873 0 1.565-.327 2.078-.974.521-.646.778-1.428.778-2.338 0-.909-.257-1.691-.778-2.338-.513-.646-1.205-.974-2.078-.974-1.177 0-2.097.701-2.543 1.692a3.934 3.934 0 0 0-.322 1.619c0 1.174.437 2.211 1.319 2.839.445.32.958.474 1.546.474zm-1.091-1.828c-.275-.41-.408-.901-.408-1.483 0-.582.133-1.073.408-1.474.275-.409.636-.609 1.091-.609.456 0 .816.2 1.082.609.275.4.408.892.408 1.474s-.133 1.073-.408 1.483c-.266.399-.626.601-1.082.601-.456-.001-.816-.202-1.091-.601zM84.746 66.491c.873 0 1.565-.327 2.078-.973.521-.646.778-1.429.778-2.338 0-.91-.257-1.692-.778-2.338-.513-.646-1.205-.974-2.078-.974-1.177 0-2.096.7-2.542 1.692a3.93 3.93 0 0 0-.322 1.619c0 1.173.437 2.21 1.319 2.838.445.32.957.474 1.545.474zm-1.091-1.828c-.275-.409-.408-.9-.408-1.482 0-.583.133-1.074.408-1.475.275-.409.636-.609 1.091-.609.456 0 .816.2 1.082.609.274.4.408.892.408 1.475 0 .582-.134 1.073-.408 1.482-.266.4-.626.601-1.082.601-.455 0-.815-.201-1.091-.601zM46.611 77.171c.873 0 1.565-.328 2.078-.974.521-.646.777-1.429.777-2.338 0-.91-.256-1.692-.777-2.338-.513-.646-1.205-.974-2.078-.974-1.177 0-2.098.7-2.543 1.691a3.923 3.923 0 0 0-.322 1.62c0 1.173.436 2.21 1.318 2.838.446.32.958.475 1.547.475zm-1.092-1.829c-.274-.409-.407-.9-.407-1.482 0-.583.133-1.074.407-1.475.275-.409.636-.609 1.092-.609.455 0 .815.2 1.081.609.275.4.408.892.408 1.475 0 .582-.133 1.073-.408 1.482-.266.4-.626.601-1.081.601-.456-.001-.817-.201-1.092-.601zM53.888 84.261v-6.368h-1.187l-1.556.801v1.282l1.404-.682v4.967zM64.261 95.564v-6.368h-1.187l-1.556.801v1.282l1.404-.682v4.967zM69.342 89.72v-6.368h-1.186l-1.557.801v1.282l1.404-.683v4.968zM76.278 92.71c.873 0 1.565-.327 2.078-.973.521-.646.778-1.429.778-2.339 0-.909-.257-1.691-.778-2.338-.513-.646-1.205-.973-2.078-.973-1.176 0-2.097.7-2.542 1.691a3.919 3.919 0 0 0-.323 1.619c0 1.174.437 2.211 1.319 2.839.445.32.958.474 1.546.474zm-1.091-1.828c-.275-.409-.408-.9-.408-1.483 0-.582.133-1.073.408-1.474.275-.409.636-.609 1.091-.609.456 0 .816.2 1.082.609.275.4.408.892.408 1.474 0 .583-.133 1.074-.408 1.483-.266.4-.626.601-1.082.601-.455-.001-.816-.201-1.091-.601zM70.185 100.961c.873 0 1.565-.327 2.078-.974.521-.646.778-1.428.778-2.338 0-.909-.257-1.691-.778-2.338-.513-.646-1.205-.973-2.078-.973-1.176 0-2.097.7-2.543 1.691a3.934 3.934 0 0 0-.322 1.619c0 1.174.437 2.211 1.318 2.839.446.32.959.474 1.547.474zm-1.091-1.828c-.275-.409-.408-.901-.408-1.483 0-.582.133-1.073.408-1.474.275-.409.636-.609 1.091-.609.456 0 .816.2 1.082.609.275.4.408.892.408 1.474s-.133 1.074-.408 1.483c-.266.399-.626.601-1.082.601-.455-.001-.815-.202-1.091-.601zM84.352 93.665v-6.368h-1.185l-1.557.801v1.283l1.404-.683v4.967zM92.591 65.69v-6.368h-1.186l-1.556.801v1.282l1.404-.682v4.967zM79.16 101.892v-6.368h-1.187l-1.556.801v1.282l1.404-.682v4.967zM86.098 102.355c.873 0 1.565-.327 2.078-.973.521-.646.778-1.429.778-2.339 0-.909-.257-1.691-.778-2.338-.513-.646-1.205-.973-2.078-.973-1.177 0-2.097.7-2.543 1.691a3.954 3.954 0 0 0-.322 1.619c0 1.174.436 2.211 1.318 2.839.446.32.959.474 1.547.474zm-1.091-1.828c-.275-.409-.408-.9-.408-1.483 0-.582.133-1.073.408-1.473.274-.41.636-.61 1.091-.61.455 0 .816.2 1.082.61.274.399.407.891.407 1.473 0 .583-.133 1.074-.407 1.483-.266.4-.627.601-1.082.601-.455 0-.817-.2-1.091-.601zM90.674 93.448v-6.367h-1.187l-1.556.801v1.282l1.404-.683v4.967h1.339zM96.372 92.493c.873 0 1.566-.327 2.078-.973.522-.646.778-1.429.778-2.338 0-.91-.256-1.692-.778-2.338-.512-.646-1.205-.974-2.078-.974-1.176 0-2.097.7-2.542 1.692a3.915 3.915 0 0 0-.323 1.619c0 1.173.437 2.21 1.319 2.838.445.32.958.474 1.546.474zm-1.091-1.828c-.275-.409-.408-.9-.408-1.482s.133-1.073.408-1.474c.275-.409.636-.61 1.091-.61.456 0 .816.201 1.082.61.275.4.408.892.408 1.474s-.133 1.073-.408 1.482c-.266.4-.626.601-1.082.601-.455 0-.815-.201-1.091-.601zM104.332 90.635v-6.368h-1.186l-1.557.801v1.282l1.404-.682v4.967zM101.06 101.388V95.02h-1.186l-1.557.8v1.283l1.404-.683v4.968zM103.809 21.62c.873 0 1.565-.327 2.078-.973.522-.646.778-1.429.778-2.338 0-.91-.256-1.692-.778-2.338-.513-.646-1.205-.974-2.078-.974-1.176 0-2.097.7-2.542 1.692a3.915 3.915 0 0 0-.323 1.619c0 1.173.437 2.21 1.319 2.838.445.319.958.474 1.546.474zm-1.091-1.828c-.275-.409-.408-.9-.408-1.482 0-.583.133-1.073.408-1.474.275-.41.636-.609 1.091-.609.456 0 .816.199 1.082.609.275.4.408.891.408 1.474 0 .582-.133 1.073-.408 1.482-.266.4-.626.601-1.082.601-.455-.001-.816-.201-1.091-.601zM103.632 30.952v-6.368h-1.186l-1.556.801v1.283l1.403-.683v4.967zM113.747 21.479v-6.368h-1.187l-1.556.801v1.283l1.404-.683v4.967zM109.576 34.781c.873 0 1.565-.327 2.078-.973.521-.646.777-1.429.777-2.338 0-.91-.256-1.692-.777-2.338-.513-.646-1.205-.974-2.078-.974-1.177 0-2.097.7-2.543 1.691a3.92 3.92 0 0 0-.322 1.62c0 1.173.437 2.21 1.318 2.838.447.319.958.474 1.547.474zm-1.092-1.828c-.274-.409-.407-.9-.407-1.482 0-.583.133-1.074.407-1.475.275-.409.636-.609 1.092-.609.455 0 .815.2 1.081.609.275.4.408.892.408 1.475 0 .582-.133 1.073-.408 1.482-.266.4-.626.601-1.081.601-.456-.001-.816-.201-1.092-.601zM107.204 98.893c.872 0 1.565-.328 2.077-.974.522-.646.778-1.429.778-2.338 0-.91-.256-1.692-.778-2.338-.512-.646-1.205-.974-2.077-.974-1.177 0-2.098.7-2.543 1.692a3.915 3.915 0 0 0-.323 1.619c0 1.174.437 2.21 1.319 2.838.446.319.958.475 1.547.475zm-1.092-1.83c-.275-.409-.408-.9-.408-1.482s.133-1.074.408-1.474c.275-.409.636-.61 1.092-.61.455 0 .815.201 1.081.61.275.399.408.892.408 1.474s-.133 1.073-.408 1.482c-.266.4-.626.601-1.081.601-.456 0-.816-.2-1.092-.601zM111.273 88.063v-6.367h-1.187l-1.556.801v1.282l1.404-.683v4.967h1.339zM117.695 95.946c.873 0 1.565-.327 2.078-.974.522-.646.778-1.428.778-2.338 0-.909-.256-1.692-.778-2.338-.513-.646-1.205-.974-2.078-.974-1.176 0-2.097.701-2.542 1.692a3.919 3.919 0 0 0-.323 1.619c0 1.174.437 2.211 1.319 2.839.446.32.958.474 1.546.474zm-1.091-1.828c-.275-.41-.408-.901-.408-1.483 0-.582.133-1.073.408-1.474.275-.409.636-.609 1.091-.609.456 0 .816.2 1.082.609.275.4.408.892.408 1.474s-.133 1.073-.408 1.483c-.266.399-.626.6-1.082.6-.455 0-.815-.2-1.091-.6zM34.919 61.893v-6.367h-1.186l-1.557.801v1.281l1.404-.682v4.967zM57.605 48.133v-6.368h-1.186l-1.557.801v1.282l1.404-.682v4.967zM53.083 69.033v-6.368h-1.186l-1.557.801v1.283l1.404-.683v4.967zM44.594 87.557v-6.368h-1.186l-1.557.801v1.282l1.404-.683v4.968zM55.63 93.359c.873 0 1.565-.327 2.078-.974.521-.646.777-1.428.777-2.338 0-.909-.256-1.691-.777-2.338-.513-.646-1.205-.973-2.078-.973-1.177 0-2.097.7-2.543 1.691a3.934 3.934 0 0 0-.322 1.619c0 1.174.437 2.211 1.318 2.839.447.32.959.474 1.547.474zm-1.09-1.828c-.275-.409-.408-.9-.408-1.483 0-.582.133-1.073.408-1.474.274-.409.636-.609 1.091-.609.455 0 .816.2 1.082.609.274.4.407.892.407 1.474 0 .583-.133 1.074-.407 1.483-.266.4-.627.601-1.082.601-.455 0-.817-.2-1.091-.601zM61.211 40.028V33.66h-1.187l-1.556.801v1.282l1.404-.683v4.968h1.339zM50.33 41.092c.873 0 1.565-.327 2.078-.974.521-.646.777-1.428.777-2.338 0-.909-.256-1.692-.777-2.338-.513-.646-1.205-.974-2.078-.974-1.177 0-2.097.701-2.543 1.692a3.918 3.918 0 0 0-.322 1.619c0 1.174.436 2.211 1.318 2.839.446.32.958.474 1.547.474zm-1.092-1.829c-.274-.409-.407-.9-.407-1.482s.133-1.073.407-1.474c.275-.409.636-.609 1.092-.609.455 0 .815.2 1.081.609.275.4.408.892.408 1.474s-.133 1.073-.408 1.482c-.266.4-.626.601-1.081.601-.456 0-.817-.2-1.092-.601zM41.263 35.476v-6.367h-1.186l-1.557.8v1.283l1.404-.683v4.967zM99.667 66.216c.873 0 1.565-.327 2.078-.974.521-.646.778-1.428.778-2.337 0-.91-.257-1.692-.778-2.339-.513-.646-1.205-.973-2.078-.973-1.177 0-2.097.7-2.543 1.691a3.936 3.936 0 0 0-.322 1.62c0 1.173.437 2.21 1.318 2.838.446.32.959.474 1.547.474zm-1.091-1.828c-.275-.41-.408-.9-.408-1.482 0-.583.133-1.074.408-1.475.275-.409.636-.609 1.091-.609.456 0 .816.2 1.082.609.275.4.408.892.408 1.475 0 .582-.133 1.072-.408 1.482-.266.4-.626.601-1.082.601-.455-.001-.815-.201-1.091-.601zM80.972 14.236V7.869h-1.187l-1.556.8v1.283l1.404-.683v4.967zM94.542 109.676c.873 0 1.565-.327 2.078-.974.521-.646.778-1.428.778-2.338 0-.909-.257-1.691-.778-2.338-.513-.646-1.205-.973-2.078-.973-1.176 0-2.097.7-2.543 1.691a3.938 3.938 0 0 0-.322 1.619c0 1.174.437 2.211 1.319 2.839.445.319.958.474 1.546.474zm-1.091-1.828c-.275-.409-.408-.9-.408-1.483 0-.582.133-1.073.408-1.473.275-.41.636-.61 1.091-.61.456 0 .816.2 1.082.61.275.399.408.891.408 1.473 0 .583-.133 1.074-.408 1.483-.266.4-.626.601-1.082.601-.455-.001-.815-.201-1.091-.601z"/>
        </g>
        <path fill="#56E6FF" d="M26.44 81.589c.873 0 1.565-.327 2.078-.974.521-.646.778-1.428.778-2.338 0-.909-.257-1.691-.778-2.338-.513-.646-1.205-.974-2.078-.974-1.177 0-2.097.701-2.543 1.692a3.934 3.934 0 0 0-.322 1.619c0 1.174.437 2.211 1.319 2.839.445.32.958.474 1.546.474zm-1.091-1.828c-.275-.41-.408-.901-.408-1.483 0-.582.133-1.073.408-1.474.275-.409.636-.609 1.091-.609.456 0 .816.2 1.082.609.275.4.408.892.408 1.474s-.133 1.073-.408 1.483c-.266.399-.626.6-1.082.6-.455-.001-.815-.201-1.091-.6zM83.357 44.232v-6.367h-1.186l-1.557.801v1.282l1.404-.683v4.967h1.339zM23.054 44.263v-6.368h-1.187l-1.556.801v1.282l1.404-.682v4.967h1.339zM77.106 78.194c.872 0 1.565-.328 2.077-.974.522-.646.778-1.429.778-2.338 0-.91-.256-1.692-.778-2.338-.512-.646-1.205-.974-2.077-.974-1.177 0-2.097.7-2.543 1.692a3.915 3.915 0 0 0-.323 1.619c0 1.173.437 2.21 1.319 2.838.446.32.958.475 1.547.475zm-1.092-1.829c-.274-.409-.407-.9-.407-1.482s.133-1.073.407-1.474c.275-.41.636-.609 1.092-.609.455 0 .815.199 1.081.609.275.4.408.892.408 1.474s-.133 1.073-.408 1.482c-.266.4-.626.601-1.081.601-.456 0-.816-.2-1.092-.601zM119.841 54.392c.873 0 1.565-.328 2.078-.973.521-.646.778-1.429.778-2.338 0-.91-.257-1.692-.778-2.338-.513-.646-1.205-.974-2.078-.974-1.177 0-2.097.7-2.543 1.692a3.93 3.93 0 0 0-.322 1.619c0 1.173.437 2.21 1.319 2.837.445.319.958.475 1.546.475zm-1.091-1.829c-.275-.409-.408-.9-.408-1.482 0-.583.133-1.073.408-1.474.275-.41.636-.61 1.091-.61.456 0 .816.2 1.082.61.275.4.408.891.408 1.474 0 .582-.133 1.073-.408 1.482-.266.4-.626.601-1.082.601-.455 0-.816-.201-1.091-.601zM61.906 6.647V.279H60.72l-1.557.801v1.282l1.404-.682v4.967h1.339zM55.711 111.86v-6.368h-1.187l-1.556.801v1.282l1.404-.682v4.967zM3.068 65.07c.873 0 1.565-.327 2.078-.974.521-.646.777-1.428.777-2.338 0-.909-.256-1.691-.777-2.338-.513-.646-1.205-.973-2.078-.973-1.177 0-2.097.7-2.543 1.691a3.934 3.934 0 0 0-.322 1.619c0 1.174.437 2.211 1.318 2.839.446.32.959.474 1.547.474zm-1.091-1.828c-.275-.409-.408-.901-.408-1.483 0-.582.133-1.073.408-1.474.274-.409.636-.609 1.091-.609.455 0 .816.2 1.082.609.274.4.407.892.407 1.474s-.133 1.074-.407 1.483c-.266.4-.627.601-1.082.601-.455 0-.817-.2-1.091-.601zM132.67 78.451v-6.367h-1.187l-1.556.8v1.283l1.404-.683v4.967h1.339zM36.858 21.791c.873 0 1.565-.328 2.078-.974.521-.646.777-1.429.777-2.338 0-.91-.256-1.692-.777-2.338-.513-.646-1.205-.974-2.078-.974-1.177 0-2.097.7-2.543 1.692a3.93 3.93 0 0 0-.322 1.619c0 1.173.437 2.21 1.318 2.838.446.319.958.475 1.547.475zm-1.091-1.83c-.275-.409-.408-.9-.408-1.482 0-.583.133-1.074.408-1.474.274-.41.635-.609 1.091-.609.455 0 .815.199 1.081.609.275.399.408.891.408 1.474 0 .582-.133 1.073-.408 1.482-.266.4-.626.601-1.081.601-.456 0-.816-.2-1.091-.601zM124.192 105.631c.873 0 1.565-.327 2.078-.974.521-.646.777-1.428.777-2.338 0-.909-.256-1.691-.777-2.338-.513-.646-1.205-.974-2.078-.974-1.177 0-2.097.701-2.543 1.692a3.934 3.934 0 0 0-.322 1.619c0 1.174.437 2.211 1.318 2.838.447.321.959.475 1.547.475zm-1.09-1.828c-.275-.41-.408-.901-.408-1.483 0-.582.133-1.073.408-1.474.274-.409.636-.609 1.091-.609.455 0 .816.2 1.082.609.274.4.407.892.407 1.474s-.133 1.073-.407 1.483c-.266.399-.627.6-1.082.6-.455 0-.817-.201-1.091-.6zM156.101 86.538v-6.367h-1.186l-1.556.8v1.283l1.403-.683v4.967h1.339zM128.941 15.53c.873 0 1.565-.327 2.077-.974.522-.646.778-1.428.778-2.338 0-.909-.256-1.691-.778-2.338-.512-.646-1.204-.973-2.077-.973-1.177 0-2.097.7-2.543 1.691a3.918 3.918 0 0 0-.322 1.619c0 1.174.437 2.211 1.318 2.839.447.319.959.474 1.547.474zm-1.091-1.828c-.274-.409-.407-.901-.407-1.483 0-.582.133-1.073.407-1.474.275-.409.636-.609 1.092-.609.455 0 .815.2 1.081.609.275.4.408.892.408 1.474s-.133 1.074-.408 1.483c-.266.4-.626.601-1.081.601-.457-.001-.817-.201-1.092-.601zM143.661 43.559v-6.368h-1.186l-1.557.801v1.282l1.404-.683v4.968zM164.847 62.037c.873 0 1.566-.327 2.078-.974.521-.646.778-1.428.778-2.338 0-.91-.257-1.691-.778-2.337-.512-.646-1.205-.973-2.078-.973-1.176 0-2.097.701-2.542 1.691a3.919 3.919 0 0 0-.323 1.619c0 1.174.437 2.211 1.319 2.838.445.319.958.474 1.546.474zm-1.091-1.828c-.275-.41-.408-.901-.408-1.483 0-.582.133-1.073.408-1.473.275-.409.636-.609 1.091-.609.456 0 .816.2 1.082.609.275.4.408.891.408 1.473 0 .582-.133 1.073-.408 1.483-.266.399-.626.6-1.082.6-.455 0-.816-.201-1.091-.6zM101.194 9.18V2.812h-1.187l-1.556.801v1.283l1.404-.683V9.18h1.339z"/>
    </g>
</svg>
