<svg xmlns="http://www.w3.org/2000/svg" width="142" height="91" viewBox="0 0 142 91">
    <g fill="none" fill-rule="evenodd" stroke-linecap="round" stroke-linejoin="round" stroke-width="2">
        <path stroke="#56E6FF" d="M8.5 60.5l33-12h40l45-12"/>
        <path stroke="#56E6FF" d="M123.572 32.748l5.332 3.015-3.015 5.332"/>
        <path stroke="#303F9F" d="M17.5 83.5v-3M27.5 83.5v-3M37.5 83.5v-3M47.5 83.5v-3M57.5 83.5v-3M67.5 83.5v-3M77.5 83.5v-3M87.5 83.5v-3M97.5 83.5v-3M107.5 83.5v-3M117.5 83.5v-3M127.5 83.5v-3M8 13.51h3M8 23.51h3M8 33.51h3M8 43.51h3M8 53.51h3M8 63.51h3M8 73.51h3M138.5 83.5H7.5v-80"/>
        <path stroke="#303F9F" d="M1.81 7.1L7.5 1.411 13.19 7.1M134.983 77.894l5.69 5.689-5.69 5.69"/>
    </g>
</svg>
