<svg xmlns="http://www.w3.org/2000/svg" xmlns:xlink="http://www.w3.org/1999/xlink" width="394" height="136" viewBox="0 0 394 136">
    <defs>
        <linearGradient id="c" x1="0%" x2="102.782%" y1="44.866%" y2="50%">
            <stop offset="0%" stop-color="#56E6FF"/>
            <stop offset="100%" stop-color="#303F9F"/>
        </linearGradient>
        <path id="b" d="M104.638 53l153.299-.5"/>
        <filter id="a" width="117%" height="1140%" x="-8.5%" y="-520%" filterUnits="objectBoundingBox">
            <feMorphology in="SourceAlpha" operator="dilate" radius="1" result="shadowSpreadOuter1"/>
            <feOffset in="shadowSpreadOuter1" result="shadowOffsetOuter1"/>
            <feMorphology in="SourceAlpha" radius="1" result="shadowInner"/>
            <feOffset in="shadowInner" result="shadowInner"/>
            <feComposite in="shadowOffsetOuter1" in2="shadowInner" operator="out" result="shadowOffsetOuter1"/>
            <feGaussianBlur in="shadowOffsetOuter1" result="shadowBlurOuter1" stdDeviation="4"/>
            <feColorMatrix in="shadowBlurOuter1" values="0 0 0 0 0.337254902 0 0 0 0 0.901960784 0 0 0 0 1 0 0 0 0.5 0"/>
        </filter>
        <path id="e" d="M52 0c28.718 0 52 23.282 52 52s-23.282 52-52 52S0 80.718 0 52 23.282 0 52 0z"/>
        <filter id="d" width="153.8%" height="153.8%" x="-26.9%" y="-19.2%" filterUnits="objectBoundingBox">
            <feOffset dy="8" in="SourceAlpha" result="shadowOffsetOuter1"/>
            <feGaussianBlur in="shadowOffsetOuter1" result="shadowBlurOuter1" stdDeviation="8"/>
            <feColorMatrix in="shadowBlurOuter1" values="0 0 0 0 0.105882353 0 0 0 0 0.17254902 0 0 0 0 0.333333333 0 0 0 0.12 0"/>
        </filter>
        <path id="g" d="M52 0c28.718 0 52 23.282 52 52s-23.282 52-52 52S0 80.718 0 52 23.282 0 52 0z"/>
        <filter id="f" width="153.8%" height="153.8%" x="-26.9%" y="-19.2%" filterUnits="objectBoundingBox">
            <feOffset dy="8" in="SourceAlpha" result="shadowOffsetOuter1"/>
            <feGaussianBlur in="shadowOffsetOuter1" result="shadowBlurOuter1" stdDeviation="8"/>
            <feColorMatrix in="shadowBlurOuter1" values="0 0 0 0 0.105882353 0 0 0 0 0.17254902 0 0 0 0 0.333333333 0 0 0 0.12 0"/>
        </filter>
    </defs>
    <g fill="none" fill-rule="evenodd">
        <g stroke-dasharray="5,5" stroke-linecap="square" transform="translate(16 8)">
            <use fill="#000" filter="url(#a)" xlink:href="#b"/>
            <use stroke="url(#c)" stroke-width="2" xlink:href="#b"/>
        </g>
        <path fill="#4EC5EC" d="M178.02 44.938l-8.47-3.496L166.04 33l3.509-8.441 8.47-3.497 8.471 3.497L190 33l-3.509 8.442z"/>
        <path fill="#FFF" d="M170.896 31.32a3.439 3.439 0 0 0-.52 1.85c-.002.45.084.897.252 1.316.185.463.473.88.842 1.217.69.635 1.618.952 2.787.952 1.557 0 2.678-.546 3.36-1.637a3.34 3.34 0 0 0 .525-1.804c0-1.052-.364-1.91-1.094-2.574-.69-.634-1.623-.951-2.801-.951-1.571.02-2.688.563-3.352 1.632zm4.98.084c.508.436.763 1.036.763 1.797 0 .311-.06.619-.179.906a2.244 2.244 0 0 1-.584.833c-.426.38-.964.571-1.614.571-.65 0-1.19-.19-1.62-.571-.508-.45-.762-1.04-.762-1.768 0-.73.254-1.318.762-1.768.43-.381.966-.572 1.61-.572.65.007 1.192.198 1.624.572zm8.718-.744c.16-.207.335-.404.521-.59a.661.661 0 0 1 .34-.105v-.158h-2.637v.158c.228.036.342.126.342.271 0 .082-.08.224-.238.424l-1.085 1.345-1.049-1.345c-.142-.184-.213-.315-.212-.394 0-.148.098-.248.296-.3v-.159h-2.709l.005.158a.74.74 0 0 1 .388.12c.081.065.244.256.488.575l1.9 2.451-2.064 2.558a5.048 5.048 0 0 1-.507.582.659.659 0 0 1-.354.128v.157h2.595v-.157c-.22-.02-.331-.112-.331-.276 0-.073.067-.196.203-.37l1.272-1.572 1.26 1.626c.12.155.179.266.179.335 0 .132-.099.217-.297.257v.157h2.679v-.157a.83.83 0 0 1-.403-.158 3.941 3.941 0 0 1-.483-.552l-2.038-2.615 1.939-2.394z"/>
        <path fill="#1CA2C8" d="M197.02 44.938l-8.47-3.496L185.04 33l3.509-8.441 8.47-3.497 8.471 3.497L209 33l-3.509 8.442z"/>
        <path fill="#FFF" d="M189.896 31.32a3.439 3.439 0 0 0-.52 1.85c-.002.45.084.897.252 1.316.185.463.473.88.842 1.217.69.635 1.618.952 2.787.952 1.557 0 2.678-.546 3.36-1.637a3.34 3.34 0 0 0 .525-1.804c0-1.052-.364-1.91-1.094-2.574-.69-.634-1.623-.951-2.801-.951-1.571.02-2.688.563-3.352 1.632zm4.98.084c.508.436.763 1.036.763 1.797 0 .311-.06.619-.179.906a2.244 2.244 0 0 1-.584.833c-.426.38-.964.571-1.614.571-.65 0-1.19-.19-1.62-.571-.508-.45-.762-1.04-.762-1.768 0-.73.254-1.318.762-1.768.43-.381.966-.572 1.61-.572.65.007 1.192.198 1.624.572zm8.718-.744c.16-.207.335-.404.521-.59a.661.661 0 0 1 .34-.105v-.158h-2.637v.158c.228.036.342.126.342.271 0 .082-.08.224-.238.424l-1.085 1.345-1.049-1.345c-.142-.184-.213-.315-.212-.394 0-.148.098-.248.296-.3v-.159h-2.709l.005.158a.74.74 0 0 1 .388.12c.081.065.244.256.488.575l1.9 2.451-2.064 2.558a5.048 5.048 0 0 1-.507.582.659.659 0 0 1-.354.128v.157h2.595v-.157c-.22-.02-.331-.112-.331-.276 0-.073.067-.196.203-.37l1.272-1.572 1.26 1.626c.12.155.179.266.179.335 0 .132-.099.217-.297.257v.157h2.679v-.157a.83.83 0 0 1-.403-.158 3.941 3.941 0 0 1-.483-.552l-2.038-2.615 1.939-2.394z"/>
        <path fill="#3F82C6" d="M216.02 44.938l-8.47-3.496L204.04 33l3.509-8.441 8.47-3.497 8.471 3.497L228 33l-3.509 8.442z"/>
        <path fill="#FFF" d="M208.896 31.32a3.439 3.439 0 0 0-.52 1.85c-.002.45.084.897.252 1.316.185.463.473.88.842 1.217.69.635 1.618.952 2.787.952 1.557 0 2.678-.546 3.36-1.637a3.34 3.34 0 0 0 .525-1.804c0-1.052-.364-1.91-1.094-2.574-.69-.634-1.623-.951-2.801-.951-1.571.02-2.688.563-3.352 1.632zm4.98.084c.508.436.763 1.036.763 1.797 0 .311-.06.619-.179.906a2.244 2.244 0 0 1-.584.833c-.426.38-.964.571-1.614.571-.65 0-1.19-.19-1.62-.571-.508-.45-.762-1.04-.762-1.768 0-.73.254-1.318.762-1.768.43-.381.966-.572 1.61-.572.65.007 1.192.198 1.624.572zm8.718-.744c.16-.207.335-.404.521-.59a.661.661 0 0 1 .34-.105v-.158h-2.637v.158c.228.036.342.126.342.271 0 .082-.08.224-.238.424l-1.085 1.345-1.049-1.345c-.142-.184-.213-.315-.212-.394 0-.148.098-.248.296-.3v-.159h-2.709l.005.158a.74.74 0 0 1 .388.12c.081.065.244.256.488.575l1.9 2.451-2.064 2.558a5.048 5.048 0 0 1-.507.582.659.659 0 0 1-.354.128v.157h2.595v-.157c-.22-.02-.331-.112-.331-.276 0-.073.067-.196.203-.37l1.272-1.572 1.26 1.626c.12.155.179.266.179.335 0 .132-.099.217-.297.257v.157h2.679v-.157a.83.83 0 0 1-.403-.158 3.941 3.941 0 0 1-.483-.552l-2.038-2.615 1.939-2.394z"/>
        <g>
            <g transform="translate(16 8)">
                <use fill="#000" filter="url(#d)" xlink:href="#e"/>
                <use fill="#FFF" xlink:href="#e"/>
            </g>
            <path fill="#3F82C6" fill-rule="nonzero" d="M85 86v2a4 4 0 0 1-4 4H53c-2.22 0-4-1.8-4-4V60a4 4 0 0 1 4-4h28a4 4 0 0 1 4 4v2H67c-2.22 0-4 1.8-4 4v16a4 4 0 0 0 4 4h18zm-18-4h20V66H67v16zm8-5a3 3 0 1 1 0-6 3 3 0 0 1 0 6z"/>
            <path fill="#4EC5EC" fill-rule="nonzero" d="M68.125 26.01l6.816 11.547-6.831 4.112-6.816-4.119 6.83-11.54zm.001-2.61l-8.651 14.615 8.633 5.218 8.652-5.208L68.126 23.4z"/>
            <path fill="#4EC5EC" fill-rule="nonzero" d="M72.084 43.604l-3.958 5.712-3.951-5.694 3.254 1.988a1.304 1.304 0 0 0 1.358.001l3.297-2.007zm-12.61-4.42l8.652 12.464 8.633-12.456-8.651 5.264-8.633-5.272z"/>
            <path stroke="#4EC5EC" stroke-width="1.322" d="M60.325 37.85l7.802-3.829 7.805 3.828M68.126 42.587V24.862"/>
        </g>
        <g>
            <g transform="translate(274 8)">
                <use fill="#000" filter="url(#f)" xlink:href="#g"/>
                <use fill="#FFF" xlink:href="#g"/>
            </g>
            <path fill="#4EC5EC" fill-rule="nonzero" d="M343 86v2a4 4 0 0 1-4 4h-28c-2.22 0-4-1.8-4-4V60a4 4 0 0 1 4-4h28a4 4 0 0 1 4 4v2h-18c-2.22 0-4 1.8-4 4v16a4 4 0 0 0 4 4h18zm-18-4h20V66h-20v16zm8-5a3 3 0 1 1 0-6 3 3 0 0 1 0 6z"/>
            <path fill="#3F82C6" fill-rule="nonzero" d="M326.125 26.01l6.816 11.547-6.831 4.112-6.816-4.119 6.83-11.54zm.001-2.61l-8.651 14.615 8.633 5.218 8.652-5.208-8.634-14.624z"/>
            <path fill="#3F82C6" fill-rule="nonzero" d="M330.084 43.604l-3.958 5.712-3.951-5.694 3.254 1.988a1.304 1.304 0 0 0 1.358.001l3.297-2.007zm-12.61-4.42l8.652 12.464 8.633-12.456-8.651 5.264-8.633-5.272z"/>
            <path stroke="#3F82C6" stroke-width="1.322" d="M318.325 37.85l7.802-3.829 7.805 3.828M326.126 42.587V24.862"/>
        </g>
        <path fill="#52D5F5" d="M120 58.887l8-4.619A2 2 0 0 1 131 56v9.238a2 2 0 0 1-3 1.732l-8-4.619a2 2 0 0 1 0-3.464z"/>
        <path fill="#3659AE" d="M274 62.35l-8 4.62a2 2 0 0 1-3-1.732V56a2 2 0 0 1 3-1.732l8 4.619a2 2 0 0 1 0 3.464z"/>
    </g>
</svg>
