<svg xmlns="http://www.w3.org/2000/svg" xmlns:xlink="http://www.w3.org/1999/xlink" width="388" height="136" viewBox="0 0 388 136">
    <defs>
        <linearGradient id="a" x1="0%" x2="102.782%" y1="44.866%" y2="50%">
            <stop offset="0%" stop-color="#56E6FF"/>
            <stop offset="100%" stop-color="#303F9F"/>
        </linearGradient>
        <path id="c" d="M52 0c28.719 0 52 23.281 52 52s-23.281 52-52 52S0 80.719 0 52 23.281 0 52 0z"/>
        <filter id="b" width="133.7%" height="133.7%" x="-16.8%" y="-12%" filterUnits="objectBoundingBox">
            <feOffset dy="5" in="SourceAlpha" result="shadowOffsetOuter1"/>
            <feGaussianBlur in="shadowOffsetOuter1" result="shadowBlurOuter1" stdDeviation="5"/>
            <feColorMatrix in="shadowBlurOuter1" values="0 0 0 0 0.105882353 0 0 0 0 0.17254902 0 0 0 0 0.333333333 0 0 0 0.08 0"/>
        </filter>
        <path id="e" d="M52 0c28.718 0 52 23.282 52 52s-23.282 52-52 52S0 80.718 0 52 23.282 0 52 0z"/>
        <filter id="d" width="153.8%" height="153.8%" x="-26.9%" y="-19.2%" filterUnits="objectBoundingBox">
            <feOffset dy="8" in="SourceAlpha" result="shadowOffsetOuter1"/>
            <feGaussianBlur in="shadowOffsetOuter1" result="shadowBlurOuter1" stdDeviation="8"/>
            <feColorMatrix in="shadowBlurOuter1" values="0 0 0 0 0.105882353 0 0 0 0 0.17254902 0 0 0 0 0.333333333 0 0 0 0.12 0"/>
        </filter>
    </defs>
    <g fill="none" fill-rule="evenodd">
        <path stroke="url(#a)" stroke-dasharray="5,5" stroke-linecap="square" stroke-width="2" d="M115 60.5l153.299-.5"/>
        <g transform="translate(10 8)">
            <use fill="#000" filter="url(#b)" xlink:href="#c"/>
            <use fill="#FFF" xlink:href="#c"/>
        </g>
        <path fill="#4EC5EC" d="M78.033 67.897l-14.117-5.828L58.067 48l5.848-14.068 14.117-5.828 14.118 5.828L97.998 48 92.15 62.07z"/>
        <path fill="#FFF" d="M66.16 45.201a5.732 5.732 0 0 0-.867 3.081 5.81 5.81 0 0 0 .421 2.194 5.52 5.52 0 0 0 1.402 2.03c1.15 1.057 2.698 1.585 4.645 1.585 2.596 0 4.463-.909 5.602-2.728a5.566 5.566 0 0 0 .874-3.007c0-1.753-.607-3.182-1.823-4.289-1.15-1.057-2.706-1.586-4.67-1.586-2.618.033-4.48.94-5.585 2.72zm8.3.139c.847.727 1.271 1.726 1.271 2.996 0 .517-.1 1.03-.297 1.51a3.74 3.74 0 0 1-.974 1.387c-.71.635-1.607.952-2.69.952-1.085 0-1.984-.317-2.7-.952-.847-.75-1.27-1.732-1.27-2.947 0-1.214.423-2.197 1.27-2.946.716-.635 1.61-.953 2.683-.953 1.084.012 1.986.329 2.707.953zm14.53-1.24c.268-.345.559-.673.87-.982.168-.11.363-.17.564-.177v-.263H86.03v.263c.38.06.57.211.57.452 0 .137-.133.373-.397.707l-1.809 2.242-1.747-2.241c-.237-.307-.355-.526-.354-.658 0-.247.164-.414.494-.501v-.263h-4.515l.008.263c.23.005.455.075.647.201.135.107.406.426.812.957l3.168 4.085-3.44 4.263a8.413 8.413 0 0 1-.845.97 1.098 1.098 0 0 1-.59.213v.263h4.325v-.263c-.368-.033-.553-.186-.552-.46 0-.12.112-.326.338-.616l2.121-2.62 2.1 2.71c.199.258.298.444.298.559 0 .219-.165.361-.495.427v.263h4.464v-.263a1.382 1.382 0 0 1-.672-.263 6.568 6.568 0 0 1-.804-.92l-3.397-4.358 3.231-3.99z"/>
        <path fill="#3F82C6" fill-rule="nonzero" d="M45 62.4c-5 0-9.42-2.56-12-6.4.06-4 8-6.2 12-6.2S56.94 52 57 56c-2.58 3.84-7 6.4-12 6.4zM45 34a6 6 0 1 1 0 12 6 6 0 0 1 0-12zm0-6c-11.046 0-20 8.954-20 20a20 20 0 1 0 40 0c0-11.06-9-20-20-20z"/>
        <path fill="#303F9F" d="M50.117 79.534v-.925h-3.682v-2.035h2.902v-.926h-2.902v-1.603h3.563v-.926h-4.573v6.415h4.692zm1.295-2.713c0 .908.248 1.604.744 2.1.505.485 1.148.732 1.947.732.799 0 1.442-.247 1.947-.742.505-.495.753-1.191.753-2.09V73.12h-1.01v3.74c0 1.2-.67 1.85-1.69 1.85s-1.68-.65-1.68-1.85v-3.74h-1.01v3.702zm8.09 2.713h-1.01V73.12h2.93c.652 0 1.175.165 1.552.504.376.34.57.78.57 1.32 0 .88-.515 1.558-1.397 1.769l2.02 2.822h-1.22l-1.938-2.713h-1.506v2.713zm0-5.49v1.889h1.856c.734 0 1.166-.34 1.166-.954 0-.586-.432-.934-1.166-.934h-1.855zm7.173 3.987c.431.45.964.678 1.598.678.633 0 1.166-.229 1.598-.678.431-.458.652-1.026.652-1.704 0-.679-.22-1.247-.652-1.696a2.108 2.108 0 0 0-1.598-.687c-.634 0-1.167.229-1.598.687-.432.45-.643 1.017-.643 1.696 0 .678.211 1.246.643 1.704zm3.949.67c-.625.631-1.405.952-2.351.952s-1.727-.32-2.351-.953c-.616-.641-.928-1.43-.928-2.373 0-.944.312-1.732.928-2.365.624-.641 1.405-.962 2.35-.962.947 0 1.727.32 2.352.962.624.633.936 1.42.936 2.365 0 .944-.312 1.732-.936 2.373zm2.598.833l1.956-2.667 1.947 2.667h1.203l-2.553-3.491 2.15-2.924h-1.176l-1.552 2.126-1.552-2.126H72.45l2.14 2.942-2.544 3.473h1.175zm-21.48 9.673h-3.158v-6.414h2.92c1.148 0 1.892.586 1.892 1.576 0 .66-.368 1.136-.854 1.32.78.146 1.368.77 1.368 1.713 0 .54-.193.98-.588 1.31-.385.33-.909.495-1.58.495zm-2.148-2.941v2.016h1.965c.78 0 1.258-.376 1.258-1.026 0-.633-.459-.99-1.258-.99h-1.965zm0-2.548v1.659h1.736c.67 0 1.065-.293 1.065-.834 0-.54-.395-.825-1.065-.825h-1.736zm6.272 5.49h-1.074l2.81-6.452h.973l2.81 6.451h-1.083l-.698-1.594h-3.05l-.688 1.594zm2.213-5.178l-1.175 2.694h2.35L58.08 84.03zm5.483 5.177v-4.664l3.655 4.664h.854v-6.414h-.992v4.646l-3.628-4.646h-.881v6.414h.992zm7.3 0v-3.079l3.03 3.08h1.378l-3.453-3.483 2.976-2.932h-1.295l-2.636 2.62v-2.62h-1.01v6.414h1.01zm-31.788 9.674H38l2.81-6.452h.974l2.81 6.452H43.51l-.698-1.595h-3.049l-.689 1.595zm2.214-5.178l-1.176 2.694h2.351l-1.175-2.694zM48.478 99c.726 0 1.35-.174 1.883-.513V97.47c-.496.394-1.111.586-1.837.586-.689 0-1.258-.22-1.717-.669-.45-.449-.68-1.026-.68-1.714 0-.687.22-1.255.67-1.704.45-.45 1.02-.678 1.69-.678.634 0 1.212.165 1.736.504v-1.018c-.505-.284-1.084-.43-1.745-.43-.973 0-1.781.311-2.424.944-.643.623-.965 1.42-.965 2.382 0 .963.322 1.76.965 2.392.652.623 1.46.935 2.424.935zm6.373 0c.726 0 1.35-.174 1.883-.513V97.47c-.496.394-1.111.586-1.837.586-.689 0-1.258-.22-1.717-.669-.45-.449-.68-1.026-.68-1.714 0-.687.22-1.255.67-1.704.45-.45 1.02-.678 1.69-.678.634 0 1.213.165 1.736.504v-1.018c-.505-.284-1.083-.43-1.745-.43-.973 0-1.781.311-2.424.944-.643.623-.964 1.42-.964 2.382 0 .963.321 1.76.964 2.392.652.623 1.46.935 2.424.935zm4.665-1.622c.432.449.965.678 1.598.678.634 0 1.167-.229 1.598-.678.432-.458.652-1.026.652-1.705 0-.678-.22-1.246-.652-1.695a2.108 2.108 0 0 0-1.598-.687c-.633 0-1.166.229-1.598.687-.431.449-.642 1.017-.642 1.695 0 .679.21 1.247.642 1.705zm3.95.669c-.625.632-1.406.953-2.352.953s-1.726-.32-2.35-.953c-.616-.642-.928-1.43-.928-2.374 0-.944.312-1.732.927-2.364.625-.641 1.405-.962 2.351-.962s1.727.32 2.351.962c.625.632.937 1.42.937 2.364s-.312 1.732-.937 2.374zm2.405-1.879c0 .908.248 1.604.744 2.099.505.486 1.148.733 1.947.733.799 0 1.442-.247 1.947-.742.505-.495.753-1.192.753-2.09v-3.702h-1.01v3.739c0 1.2-.67 1.851-1.69 1.851s-1.68-.65-1.68-1.851v-3.74h-1.01v3.703zm8.072 2.713v-4.665l3.655 4.665h.854v-6.415h-.991v4.646l-3.628-4.646h-.881v6.415h.991zm5.795-5.49h2.121v5.49h1.01v-5.49H85v-.925h-5.262v.925z"/>
        <g>
            <g transform="translate(268 8)">
                <use fill="#000" filter="url(#d)" xlink:href="#e"/>
                <use fill="#FFF" xlink:href="#e"/>
            </g>
            <path fill="#4EC5EC" fill-rule="nonzero" d="M337 91v2a4 4 0 0 1-4 4h-28c-2.22 0-4-1.8-4-4V65a4 4 0 0 1 4-4h28a4 4 0 0 1 4 4v2h-18c-2.22 0-4 1.8-4 4v16a4 4 0 0 0 4 4h18zm-18-4h20V71h-20v16zm8-5a3 3 0 1 1 0-6 3 3 0 0 1 0 6z"/>
            <path fill="#3F82C6" fill-rule="nonzero" d="M320.125 31.01l6.816 11.547-6.831 4.112-6.816-4.119 6.83-11.54zm.001-2.61l-8.651 14.615 8.633 5.218 8.652-5.208-8.634-14.624z"/>
            <path fill="#3F82C6" fill-rule="nonzero" d="M324.084 48.604l-3.958 5.712-3.951-5.694 3.254 1.988a1.304 1.304 0 0 0 1.358.001l3.297-2.007zm-12.61-4.42l8.652 12.464 8.633-12.456-8.651 5.264-8.633-5.272z"/>
            <path stroke="#3F82C6" stroke-width="1.322" d="M312.325 42.85l7.802-3.829 7.805 3.828M320.126 47.587V29.862"/>
            <g stroke="#3F82C6" stroke-width="1.057">
                <path d="M347.21 40.09l-.737 2.938-1.095.426-.537 2.142H351L350.146 49h-10.92l.877-3.496-1.103.429.736-2.938 1.103-.429L342.486 36h4.762l-1.133 4.515z"/>
            </g>
            <g fill="#3F82C6">
                <path d="M296.405 48.856L296.4 51l-1.605-.003.004-2.074h-.124a121.46 121.46 0 0 1-1.037-.024l-.003 2.09-1.664-.003.004-2.143c-1.78-.074-2.726-.162-2.726-.162l.13-1.599.683.01c.952.014.925-.553.927-1.125l.029-6.31c.004-.903-.38-1.033-1.024-1.034h-.918L289 37.196s1.25-.138 2.996-.205l.003-1.991 1.663.003-.004 1.952c.379 0 .768.005 1.162.014l.003-1.959 1.605.004-.004 2.033c.176.013.352.025.527.042 2.113.199 2.937 1.834 3.036 2.59.187 1.44-1.066 2.51-1.066 2.51s1.656.526 1.982 2.091c.503 2.412-.935 4.21-4.498 4.576zm-.877-10.078c-1.098 0-2.116-.005-2.116-.005l-.018 3.067s1.123.005 2.221.005c2.053 0 2.29-3.067-.087-3.067zm.351 4.68c-1.29 0-2.51-.018-2.51-.018l-.008 3.569s1.283.065 2.57-.037c2.411-.193 2.443-3.514-.052-3.514z"/>
            </g>
        </g>
        <g>
            <path fill="#4EC5EC" d="M172.02 44.938l-8.47-3.496L160.04 33l3.509-8.441 8.47-3.497 8.471 3.497L184 33l-3.509 8.442z"/>
            <path fill="#FFF" d="M164.896 31.32a3.439 3.439 0 0 0-.52 1.85c-.002.45.084.897.252 1.316.185.463.473.88.842 1.217.69.635 1.618.952 2.787.952 1.557 0 2.678-.546 3.36-1.637a3.34 3.34 0 0 0 .525-1.804c0-1.052-.364-1.91-1.094-2.574-.69-.634-1.623-.951-2.801-.951-1.571.02-2.688.563-3.352 1.632zm4.98.084c.508.436.763 1.036.763 1.797 0 .311-.06.619-.179.906a2.244 2.244 0 0 1-.584.833c-.426.38-.964.571-1.614.571-.65 0-1.19-.19-1.62-.571-.508-.45-.762-1.04-.762-1.768 0-.73.254-1.318.762-1.768.43-.381.966-.572 1.61-.572.65.007 1.192.198 1.624.572zm8.718-.744c.16-.207.335-.404.521-.59a.661.661 0 0 1 .34-.105v-.158h-2.637v.158c.228.036.342.126.342.271 0 .082-.08.224-.238.424l-1.085 1.345-1.049-1.345c-.142-.184-.213-.315-.212-.394 0-.148.098-.248.296-.3v-.159h-2.709l.005.158a.74.74 0 0 1 .388.12c.081.065.244.256.488.575l1.9 2.451-2.064 2.558a5.048 5.048 0 0 1-.507.582.659.659 0 0 1-.354.128v.157h2.595v-.157c-.22-.02-.331-.112-.331-.276 0-.073.067-.196.203-.37l1.272-1.572 1.26 1.626c.12.155.179.266.179.335 0 .132-.099.217-.297.257v.157h2.679v-.157a.83.83 0 0 1-.403-.158 3.941 3.941 0 0 1-.483-.552l-2.038-2.615 1.939-2.394z"/>
            <path fill="#1CA2C8" d="M191.02 44.938l-8.47-3.496L179.04 33l3.509-8.441 8.47-3.497 8.471 3.497L203 33l-3.509 8.442z"/>
            <path fill="#FFF" d="M183.896 31.32a3.439 3.439 0 0 0-.52 1.85c-.002.45.084.897.252 1.316.185.463.473.88.842 1.217.69.635 1.618.952 2.787.952 1.557 0 2.678-.546 3.36-1.637a3.34 3.34 0 0 0 .525-1.804c0-1.052-.364-1.91-1.094-2.574-.69-.634-1.623-.951-2.801-.951-1.571.02-2.688.563-3.352 1.632zm4.98.084c.508.436.763 1.036.763 1.797 0 .311-.06.619-.179.906a2.244 2.244 0 0 1-.584.833c-.426.38-.964.571-1.614.571-.65 0-1.19-.19-1.62-.571-.508-.45-.762-1.04-.762-1.768 0-.73.254-1.318.762-1.768.43-.381.966-.572 1.61-.572.65.007 1.192.198 1.624.572zm8.718-.744c.16-.207.335-.404.521-.59a.661.661 0 0 1 .34-.105v-.158h-2.637v.158c.228.036.342.126.342.271 0 .082-.08.224-.238.424l-1.085 1.345-1.049-1.345c-.142-.184-.213-.315-.212-.394 0-.148.098-.248.296-.3v-.159h-2.709l.005.158a.74.74 0 0 1 .388.12c.081.065.244.256.488.575l1.9 2.451-2.064 2.558a5.048 5.048 0 0 1-.507.582.659.659 0 0 1-.354.128v.157h2.595v-.157c-.22-.02-.331-.112-.331-.276 0-.073.067-.196.203-.37l1.272-1.572 1.26 1.626c.12.155.179.266.179.335 0 .132-.099.217-.297.257v.157h2.679v-.157a.83.83 0 0 1-.403-.158 3.941 3.941 0 0 1-.483-.552l-2.038-2.615 1.939-2.394z"/>
            <g>
                <path fill="#3F82C6" d="M210.02 44.938l-8.47-3.496L198.04 33l3.509-8.441 8.47-3.497 8.471 3.497L222 33l-3.509 8.442z"/>
                <path fill="#FFF" d="M202.896 31.32a3.439 3.439 0 0 0-.52 1.85c-.002.45.084.897.252 1.316.185.463.473.88.842 1.217.69.635 1.618.952 2.787.952 1.557 0 2.678-.546 3.36-1.637a3.34 3.34 0 0 0 .525-1.804c0-1.052-.364-1.91-1.094-2.574-.69-.634-1.623-.951-2.801-.951-1.571.02-2.688.563-3.352 1.632zm4.98.084c.508.436.763 1.036.763 1.797 0 .311-.06.619-.179.906a2.244 2.244 0 0 1-.584.833c-.426.38-.964.571-1.614.571-.65 0-1.19-.19-1.62-.571-.508-.45-.762-1.04-.762-1.768 0-.73.254-1.318.762-1.768.43-.381.966-.572 1.61-.572.65.007 1.192.198 1.624.572zm8.718-.744c.16-.207.335-.404.521-.59a.661.661 0 0 1 .34-.105v-.158h-2.637v.158c.228.036.342.126.342.271 0 .082-.08.224-.238.424l-1.085 1.345-1.049-1.345c-.142-.184-.213-.315-.212-.394 0-.148.098-.248.296-.3v-.159h-2.709l.005.158a.74.74 0 0 1 .388.12c.081.065.244.256.488.575l1.9 2.451-2.064 2.558a5.048 5.048 0 0 1-.507.582.659.659 0 0 1-.354.128v.157h2.595v-.157c-.22-.02-.331-.112-.331-.276 0-.073.067-.196.203-.37l1.272-1.572 1.26 1.626c.12.155.179.266.179.335 0 .132-.099.217-.297.257v.157h2.679v-.157a.83.83 0 0 1-.403-.158 3.941 3.941 0 0 1-.483-.552l-2.038-2.615 1.939-2.394z"/>
            </g>
        </g>
        <g>
            <path fill="#52D5F5" d="M114 58.887l8-4.619A2 2 0 0 1 125 56v9.238a2 2 0 0 1-3 1.732l-8-4.619a2 2 0 0 1 0-3.464z"/>
            <path fill="#3659AE" d="M268 62.35l-8 4.62a2 2 0 0 1-3-1.732V56a2 2 0 0 1 3-1.732l8 4.619a2 2 0 0 1 0 3.464z"/>
        </g>
    </g>
</svg>
