<svg xmlns="http://www.w3.org/2000/svg" width="24" height="24" viewBox="0 0 24 24">
    <g fill="#18FFFF" fill-rule="evenodd">
        <path d="M12 24C5.373 24 0 18.627 0 12S5.373 0 12 0s12 5.373 12 12-5.373 12-12 12zm4.8-16.8c-1.632-1.656-3.912-2.28-6.04-1.888a4 4 0 0 0-5.448 5.448c-.392 2.128.232 4.408 1.888 6.04 1.632 1.656 3.912 2.28 6.04 1.888a4 4 0 0 0 5.448-5.448c.392-2.128-.232-4.408-1.888-6.04z"/>
        <path d="M12.032 16.128c2.296 0 3.44-1.104 3.44-2.592 0-.952-.448-1.968-2.184-2.36l-1.592-.352c-.608-.136-1.296-.32-1.296-.888 0-.576.48-.976 1.36-.976 1.784 0 1.616 1.224 2.504 1.224.464 0 .864-.272.864-.744 0-1.096-1.752-1.92-3.24-1.92-1.608 0-3.328.688-3.328 2.512 0 .88.312 1.816 2.04 2.248l2.152.544c.648.16.808.52.808.856 0 .544-.544 1.08-1.528 1.08-1.928 0-1.664-1.48-2.696-1.48-.464 0-.8.32-.8.776 0 .888 1.064 2.072 3.496 2.072z"/>
    </g>
</svg>
