<svg xmlns="http://www.w3.org/2000/svg" width="24" height="24" viewBox="0 0 24 24">
    <g fill="#18FFFF" fill-rule="evenodd">
        <path d="M12 24C5.373 24 0 18.627 0 12S5.373 0 12 0s12 5.373 12 12-5.373 12-12 12zm5.69-10.29c.54-.18.81-.77.65-1.31-.18-.54-.77-.84-1.31-.65l-1.3.43-.86-2.57 1.3-.44c.54-.17.83-.77.65-1.31-.18-.54-.77-.86-1.32-.65l-1.29.43-.45-1.34c-.18-.54-.76-.84-1.31-.65-.54.18-.83.77-.65 1.31l.45 1.34-2.68.89-.45-1.34c-.18-.54-.76-.85-1.31-.65-.54.18-.81.77-.65 1.3l.45 1.35-1.3.44c-.54.18-.81.77-.65 1.31.14.4.53.7.95.71l.36-.06 1.3-.43.86 2.57-1.3.44c-.54.17-.83.77-.65 1.31.14.42.53.7.95.71l.37-.06 1.29-.43.45 1.34c.14.43.53.7.95.71l.36-.06c.54-.18.83-.76.65-1.31l-.45-1.34 2.68-.89.45 1.34c.12.42.53.69.95.7l.36-.05c.54-.18.81-.77.65-1.3l-.45-1.35 1.3-.44z"/>
        <path d="M10.23 11.16l2.68-.89.86 2.57-2.68.89z"/>
    </g>
</svg>
