<svg xmlns="http://www.w3.org/2000/svg" width="24" height="24" viewBox="0 0 24 24">
    <path fill="#56E6FF" fill-rule="evenodd" d="M12 24C5.373 24 0 18.627 0 12S5.373 0 12 0s12 5.373 12 12-5.373 12-12 12zM7.816 11.059l1.71-1.711a.78.78 0 0 0 .195-.794 8.836 8.836 0 0 1-.443-2.776A.778.778 0 0 0 8.5 5H5.778A.778.778 0 0 0 5 5.778C5 13.08 10.92 19 18.222 19c.43 0 .778-.348.778-.778V15.5a.778.778 0 0 0-.778-.778 8.836 8.836 0 0 1-2.776-.443.78.78 0 0 0-.794.194l-1.71 1.711a11.742 11.742 0 0 1-5.126-5.125z"/>
</svg>
