<svg xmlns="http://www.w3.org/2000/svg" width="24" height="24" viewBox="0 0 24 24">
    <path fill="#18FFFF" fill-rule="nonzero" d="M12 0a12 12 0 0 1 12 12c0 6.627-5.373 12-12 12a12 12 0 0 1 0-24zm6.852 8.796c.576-.48 1.248-1.056 1.548-1.692-.492.252-1.08.408-1.728.492.6-.432 1.092-.996 1.344-1.764-.624.336-1.26.624-2.052.768-1.86-2.244-6.312-.42-5.52 2.94-3.132-.192-5.04-1.608-6.624-3.348-.9 1.464-.12 3.684.948 4.296-.552-.036-.972-.204-1.368-.396.048 1.848 1.068 2.736 2.496 3.216a4.016 4.016 0 0 1-1.368.036c.444 1.284 1.368 2.088 2.952 2.256-1.08.912-3.072 1.548-4.68 1.296 1.38.876 2.952 1.572 5.136 1.476 5.292-.24 8.832-4.032 8.916-9.576z"/>
</svg>
